<svg width="325" height="83" viewBox="0 0 325 83" fill="none" xmlns="http://www.w3.org/2000/svg">
<path d="M85.5365 41.3921C85.5365 63.9581 66.6331 82.2539 43.3132 82.2539C31.5095 82.2539 20.8351 77.5652 13.1754 70.0088C6.09852 63.0293 1.58881 53.604 1.12984 43.1632C1.10317 42.5753 1.08984 41.9855 1.08984 41.3921C1.08984 35.9625 2.1849 30.7818 4.17123 26.0433C5.52338 22.8143 7.2907 19.7918 9.40844 17.0364C10.1283 16.0983 10.8901 15.1916 11.69 14.318C12.0594 13.9125 12.4365 13.5163 12.8231 13.1274C20.5075 5.3627 31.3266 0.530273 43.3132 0.530273C51.7879 0.530273 59.678 2.94464 66.2903 7.10436C67.9243 8.13093 69.4783 9.26439 70.9447 10.4955C70.9447 10.4955 70.9485 10.4955 70.9504 10.5011C70.9695 10.5158 70.9904 10.5324 71.0095 10.549C71.0247 10.5619 71.0418 10.5785 71.059 10.5914C71.2056 10.7149 71.3504 10.8402 71.4951 10.9655C77.1779 15.8956 81.4706 22.2965 83.7349 29.5488H83.7368C84.0796 30.6491 84.3767 31.7678 84.6224 32.9031C84.8376 33.8817 85.0147 34.8714 85.1537 35.8741C85.1537 35.8759 85.1537 35.8777 85.1556 35.8796C85.249 36.5541 85.327 37.2324 85.3842 37.9161C85.4089 38.1889 85.4299 38.4617 85.4489 38.7363C85.4775 39.1676 85.4984 39.6007 85.5137 40.0356C85.5289 40.4853 85.5365 40.9387 85.5365 41.3921Z" fill="url(#paint0_radial_997_3189)" stroke="#231F20" stroke-width="0.368392" stroke-miterlimit="10"/>
<path d="M63.3956 60.2899C62.9842 62.3062 61.6892 62.8941 61.6759 62.9015C61.6664 62.8941 61.3521 63.2295 61.3502 63.1835C61.2455 63.5244 61.3655 63.9262 61.3502 64.1861C61.3312 64.5289 61.6473 64.7021 61.7444 64.9878C61.9863 65.6992 61.3483 66.1692 61.3826 66.8234C61.4093 67.3303 61.6778 67.6418 61.8359 67.7818C62.3443 68.2352 63.2071 67.5975 63.4832 66.805C63.7117 66.1526 64.0279 62.708 63.9327 61.7735C64.0602 61.7735 64.1859 61.7735 64.3135 61.7791C64.3383 61.7791 64.3726 61.7791 64.3973 61.7809C64.146 61.287 63.9993 61.0032 63.5708 60.1978C63.5118 60.2272 63.4527 60.2586 63.3937 60.2881L63.3956 60.2899Z" fill="url(#paint1_radial_997_3189)" stroke="#231F20" stroke-width="0.184196" stroke-miterlimit="10"/>
<path d="M38.2055 31.8288C39.1291 31.9228 38.6911 30.887 38.3997 30.323C38.1083 29.7591 39.1291 28.8634 40.0051 28.5445C40.8812 28.2238 41.0754 27.9234 42.4238 27.3834C43.7721 26.8434 41.9515 26.8415 41.1726 26.7457C40.3937 26.6517 40.8812 26.3218 40.7345 25.5219C40.5879 24.7221 39.7138 24.4862 39.1786 24.3461C38.6435 24.2042 37.7693 23.4043 37.7693 23.4043C37.7693 23.4043 37.6227 23.6402 37.5751 24.2042C37.5256 24.7681 37.5751 24.2042 38.1102 25.38C38.6454 26.5559 38.1102 25.38 37.4303 25.192C36.7505 25.004 37.3332 25.4279 37.3808 25.8039C37.4284 26.1799 37.8188 26.6978 37.2342 26.6978C36.6495 26.6978 37.2342 26.6978 37.3313 27.6396C37.4284 28.5814 37.1847 28.3915 36.3581 28.7988C35.5316 29.2062 35.7259 29.0513 34.2918 30.1332C32.8578 31.2151 33.052 32.0149 33.1987 32.7687C33.3453 33.5225 34.3166 32.3448 35.9696 31.8749C37.6227 31.4049 37.2818 31.7329 38.2055 31.8269V31.8288Z" fill="url(#paint2_radial_997_3189)" stroke="#231F20" stroke-width="0.184196" stroke-miterlimit="10"/>
<path d="M71.2056 13.8677C71.2056 15.0601 70.8818 13.805 70.4285 13.3516C69.9734 12.8982 70.1676 12.6752 70.1029 11.6726C70.0381 10.6682 68.6117 12.4246 68.0937 11.6726C67.5757 10.9188 66.991 10.2922 66.6025 9.97889C66.214 9.66373 64.1382 9.60107 64.1382 9.41308C64.1382 9.22509 64.2029 8.78645 64.7876 8.72378C65.3704 8.66112 65.6294 8.72378 66.1493 8.72378C66.5187 8.72378 66.254 7.78568 66.2902 7.10376C67.9242 8.13033 69.4782 9.26379 70.9447 10.4949C70.6323 10.2553 70.4495 10.5742 71.2056 11.6726C71.9845 12.8024 71.2056 12.6752 71.2056 13.8677Z" fill="url(#paint3_radial_997_3189)" stroke="#231F20" stroke-width="0.184196" stroke-miterlimit="10"/>
<path d="M71.4952 10.9665C71.3638 10.8816 71.1943 10.7173 71.0591 10.5918C71.2057 10.7155 71.3505 10.841 71.4952 10.9665Z" fill="url(#paint4_radial_997_3189)" stroke="#231F20" stroke-width="0.184196" stroke-miterlimit="10"/>
<path d="M26.2531 27.6964C26.3369 27.7241 26.4264 27.7333 26.5178 27.7038C26.1788 27.5451 25.8855 27.4178 25.8569 27.4067C25.8779 27.4307 26.0436 27.6263 26.2531 27.6964Z" fill="url(#paint5_radial_997_3189)" stroke="#231F20" stroke-width="0.368392" stroke-miterlimit="10"/>
<path d="M85.1557 35.8784C85.1557 35.8784 85.1538 35.8747 85.1538 35.8729C85.1081 35.5393 84.0435 35.5761 82.8761 35.8268C81.7086 36.0774 82.0972 35.2002 82.1219 35.0748C82.1448 34.9495 80.9964 34.697 80.4765 34.5717C79.9585 34.4464 80.8002 33.8197 81.2554 33.6317C81.7086 33.4438 82.6818 33.0033 83.7826 33.0143C84.1044 33.0162 84.373 32.9738 84.6224 32.9019L83.7369 29.5494H83.735C83.735 29.5494 83.0056 28.7367 82.6171 28.5431C82.539 28.5026 82.4095 28.5247 82.2438 28.5837L82.3009 28.4197C82.2971 28.3975 82.2933 28.3662 82.2914 28.3422C82.2343 28.3017 82.2025 28.2839 82.1962 28.2888L82.1219 28.486C82.1219 28.486 82.1314 28.5524 82.141 28.6224C81.4611 28.9025 80.2784 29.6913 79.2443 29.9291C77.8826 30.2424 78.5968 29.1145 77.9493 28.2096C77.2999 27.3046 78.1435 27.4189 78.1435 26.9176C78.1435 26.4163 77.6884 26.2283 77.5589 25.2865C77.4294 24.3447 78.014 24.2821 78.4025 23.4048C78.791 22.5256 77.8179 22.3377 77.5589 21.2005C77.2999 20.0634 77.2999 20.0781 77.2999 19.8274C77.2999 19.5768 75.3554 19.5768 75.0964 19.0128C74.8355 18.447 74.5765 18.5097 73.7462 18.0084C72.9158 17.5071 72.7616 18.3217 72.7616 18.3217C72.7616 18.3217 72.3731 18.071 72.0493 17.9457C71.7237 17.8204 71.6589 18.447 71.3428 19.2008C71.0266 19.9528 70.8819 19.0128 70.5582 18.071C70.2325 17.1293 70.5582 18.071 69.326 18.9502C68.9489 19.2192 68.7718 19.3575 68.6975 19.422C68.728 19.3814 68.7413 19.3261 68.6118 19.3261C68.2233 19.3261 67.8348 18.5723 67.9243 17.8831C68.0119 17.1938 68.0291 16.5653 68.2881 15.9497C68.5471 15.3341 69.0022 16.0013 69.9087 15.9497C70.8172 15.8981 71.2704 15.0595 71.3352 14.6209C71.3999 14.1804 71.08 14.3481 70.2972 14.9066C69.5164 15.465 69.585 14.9969 68.7413 14.3684C67.8996 13.7381 67.7053 14.5582 66.6026 14.8715C66.0694 15.0227 65.6447 14.6578 65.3457 14.2412C65.4504 13.9353 65.5304 13.7049 65.5647 13.6017C65.7609 13.0211 65.4352 13.1778 64.801 12.2139C64.1669 11.25 64.5592 11.9706 62.708 12.1733C60.8569 12.3761 61.8701 12.612 61.2207 12.2987C60.5732 11.9854 60.6379 12.3613 59.0534 12.7742C57.4689 13.1852 57.9146 13.0525 57.9146 13.6017C57.9146 14.1509 57.2023 14.0551 56.1644 14.1177C55.1265 14.1804 55.0617 13.4284 54.2847 12.6581C53.5058 11.8895 53.702 11.7347 53.182 11.1689C52.664 10.6049 52.7935 10.7303 52.664 10.5423C52.5345 10.3543 53.3763 9.60048 53.3763 9.60048C53.3763 9.60048 53.8315 8.5352 55.7759 8.22005C57.7203 7.90673 55.5169 7.46809 55.1931 7.53075C54.8675 7.59342 55.1931 7.53075 53.3763 7.65608C51.5614 7.78141 53.3763 7.65608 52.0146 8.22005C50.6548 8.78586 51.6909 8.22005 50.9786 8.97385C50.2644 9.7258 51.3024 10.1036 51.0434 11.1062C50.7843 12.1107 49.4874 10.8556 48.5143 10.2289C47.543 9.60048 48.2553 10.2289 47.802 11.5467C47.3468 12.8645 47.0231 11.672 44.953 10.9182C42.8809 10.1663 44.4311 11.0436 43.0047 11.9854C42.8885 12.0609 42.7876 12.1217 42.6981 12.1715C41.6773 12.7226 42.2106 11.6038 42.0315 11.5467C41.8373 11.4841 41.7725 11.2316 41.7078 10.5423C41.643 9.85297 41.5783 10.1663 41.1574 9.28716C40.7365 8.40988 40.7346 8.91118 38.5312 8.84852C36.3258 8.78586 38.2055 8.28271 38.2055 8.03206C38.2055 7.78141 39.0492 7.09211 40.6699 7.02945C42.2905 6.96679 39.4377 6.21299 38.4017 6.58897C37.3638 6.96679 37.817 7.02945 37.299 8.03206C36.7791 9.03651 36.9753 9.47515 36.4553 10.3045C35.9373 11.1339 36.1316 10.6049 34.8347 11.7347C33.5377 12.8645 33.9929 11.1062 33.0845 11.2316C32.1761 11.3587 32.3075 11.7974 31.3343 12.6581C30.3611 13.5206 29.129 11.7974 29.1956 12.6581C29.2604 13.5206 26.8608 12.9271 26.3428 13.1022C25.8229 13.2792 24.9811 12.9271 24.5259 12.3613C24.0727 11.7974 23.8137 11.4214 23.1014 11.4841C22.3872 11.5467 21.7397 10.9182 21.4141 10.5423C21.0903 10.1663 20.3133 10.2916 20.1191 10.5423C19.9229 10.7948 18.4965 10.7929 17.9785 10.5423C17.4605 10.2916 17.5252 10.9182 16.7463 11.86C15.9693 12.8018 16.4225 12.236 14.9314 13.058C13.6687 13.7547 13.6611 13.3123 12.8231 13.1262C12.4365 13.5151 12.0595 13.9113 11.69 14.3168C11.8919 14.3205 12.0804 14.3149 12.208 14.3076C12.7508 14.2726 13.9582 14.4329 13.5049 14.9342C13.0517 15.4355 12.9869 15.4355 10.9777 16.5026C9.9322 17.0574 9.61416 17.0961 9.40848 17.0353C7.29075 19.7906 5.52343 22.8132 4.17127 26.0421C4.56549 26.748 4.99209 26.9323 5.14444 27.4189C5.3425 28.0474 5.82052 28.3459 5.94431 28.9099C6.0681 29.4739 5.53104 29.7411 5.46629 31.6228C5.40154 33.5064 5.8548 32.4393 5.88527 33.7571C5.91574 35.0748 5.66055 34.7597 5.27204 35.2002C4.88353 35.6388 5.46629 35.7015 5.96716 36.2654C6.46803 36.8294 5.5958 36.9566 5.96716 37.0819C6.05096 37.1095 6.11761 37.1593 6.16903 37.2146C6.1976 37.2883 6.23569 37.3713 6.2833 37.4579C6.29472 37.5998 6.22426 37.7325 6.04905 37.7712C5.68911 37.8541 6.6261 38.748 6.6261 38.748L6.69847 41.3909C7.01841 42.2055 4.26078 41.5439 3.84561 42.3179C3.26286 43.4016 2.15828 43.175 1.12988 43.1621C1.58885 53.6028 6.09857 63.0281 13.1755 70.0076C14.1696 68.9239 14.8361 67.5785 15.0609 66.3824C15.4456 64.3329 17.1177 66.093 18.8183 65.0904L23.2309 59.7936C25.2325 57.5174 23.7546 55.0717 21.3493 54.681C21.4388 54.4506 21.5283 54.2184 21.6159 53.9862C20.1152 52.8306 19.2487 51.6898 18.6279 52.4841C18.0089 52.5062 13.1812 47.1522 14.6171 42.6478C14.6647 42.5022 14.878 42.3972 14.9885 42.2903C14.6781 42.1078 14.301 41.7927 14.0896 41.5089C14.1601 41.3393 14.2534 41.1163 14.3219 40.9467C12.3432 41.0757 10.9892 38.7517 8.81811 39.6363C8.74383 39.9294 8.63909 40.3183 8.5572 40.6076C8.42579 40.5615 8.25249 40.5007 8.12108 40.4546C8.18964 40.0787 8.39088 39.5853 8.72479 38.9747C8.74193 38.8438 7.27361 37.7712 6.63181 37.2164C6.60134 37.1906 6.5861 37.1556 6.5861 37.1151C6.5861 36.717 7.90017 35.6664 8.25439 35.3255C8.6429 34.9495 9.55132 34.6344 9.48657 33.9451C9.42181 33.2539 8.57815 33.4438 7.72305 32.69C6.86987 31.938 8.15727 32.5886 8.74003 31.8975C9.32278 31.2082 9.62369 31.4349 10.2712 31.6855C10.9206 31.938 11.4881 31.7095 11.4881 31.7095C11.4881 31.7095 11.5357 30.1798 9.68082 29.1145C9.08854 28.7735 7.86398 30.3751 7.28122 27.3341C7.07935 26.2854 9.22566 25.9131 9.55132 25.6625C9.87507 25.4118 11.949 24.47 12.8574 25.4118C13.7639 26.3536 13.6344 25.8505 15.1256 27.7967C16.6168 29.7411 15.8398 29.6784 16.9405 31.6855C18.0432 33.6944 17.9137 32.7526 18.367 32.8153C18.8221 32.8779 20.5723 31.6228 21.1551 31.4349C21.7397 31.2469 22.7757 31.938 23.4899 31.8108C24.2022 31.6855 26.0819 33.1286 26.278 33.0659C26.4723 33.0033 26.9255 32.4393 27.314 32.7526C27.7025 33.0659 28.5462 33.7571 28.5462 33.7571C28.5462 33.7571 29.129 32.1887 29.4546 31.6855C29.7784 31.1842 30.6849 31.0589 31.3991 29.8038C32.1113 28.5487 31.6581 28.674 32.0466 28.2851C32.437 27.8962 32.955 28.1727 33.6025 28.2851C34.2519 28.3975 33.6672 27.2936 33.5377 26.7296C33.4082 26.1656 34.7052 26.291 35.2898 26.0403C35.8726 25.7878 35.7431 25.4118 36.1963 24.9105C36.6496 24.4074 36.2611 24.0314 36.1963 23.5301C36.1316 23.027 35.7431 22.5256 35.5488 22.616C35.3546 22.7081 35.3546 21.3332 35.5488 21.1452C35.7431 20.9572 36.7791 20.9572 37.2343 20.7066C37.6875 20.4559 36.1963 20.0154 35.8726 19.4515C35.5488 18.8875 36.2611 18.259 36.5201 17.5697C36.7791 16.8786 38.0113 16.44 39.4377 15.6954C40.8641 14.9508 40.0224 15.2475 40.9289 15.0595C41.8373 14.8715 41.7078 14.7462 41.7078 13.6017C41.7078 12.4572 43.458 12.5493 44.3645 13.351C45.2729 14.1528 45.0139 14.1804 45.9128 15.441C46.8136 16.6998 46.5698 15.5608 47.4268 16.44C48.2838 17.3191 48.2552 17.1938 49.6169 18.5723C50.1159 19.0792 50.3539 19.2819 50.5082 19.3501C50.4511 19.7132 50.4549 19.9896 50.4492 20.2237C50.4435 20.4559 50.4282 20.6439 50.3311 20.8319C50.1349 21.2079 49.9407 21.0826 50.1349 22.1497C50.3292 23.2168 51.0453 23.9061 50.5253 24.1567C50.0054 24.4074 49.5522 24.5972 49.0989 25.5372C48.6438 26.4789 48.579 26.8549 48.579 27.8594C48.579 28.8638 47.0193 29.9586 46.8936 30.3751C46.865 30.4709 46.7507 30.6165 46.5965 30.7824C45.6957 30.7566 44.4292 30.8211 44.1055 31.2432C43.717 31.7482 43.0028 32.126 42.9057 32.6273C42.8086 33.1286 42.2258 34.0077 41.7725 34.0077C41.3193 34.0077 41.0584 33.6944 40.8641 34.6344C40.6699 35.5761 40.9898 36.3078 40.2623 36.8884C39.5348 37.4708 39.8909 37.9684 39.3082 38.2467C38.7254 38.525 38.4017 40.2187 38.6607 40.5947C38.9197 40.9725 38.8035 41.6618 38.5693 41.7245C38.3369 41.7872 38.6607 42.9796 38.6607 42.9796C39.3482 43.8274 38.6931 44.1094 40.5727 43.8274C42.4524 43.5436 42.0011 42.4156 43.3132 41.7558C44.6254 41.0979 44.8901 41.4112 45.1148 41.9438C45.3377 42.4783 44.0731 43.6689 45.4995 42.9796C46.926 42.2903 46.7184 40.8122 47.4268 41.9125C48.1353 43.0128 48.0934 43.1049 48.3848 43.4182C48.6761 43.7334 49.2608 43.9748 49.9083 44.1997C50.5558 44.4227 49.8283 43.3316 52.2755 43.8274C54.7208 44.3213 51.8204 45.0899 55.5169 44.5056C55.6426 44.4853 55.7645 44.4669 55.8825 44.4503C56.0101 44.6199 56.1149 44.736 56.1149 44.736C56.1149 44.736 53.441 45.6151 52.3403 45.4271C51.2376 45.2391 50.3939 44.6107 48.7733 45.0493C47.1526 45.4898 48.2552 45.4898 47.4268 46.1164C46.5984 46.7449 45.4024 45.9911 44.1055 45.7736C42.8086 45.5561 42.6143 44.1094 42.42 44.1333C42.2258 44.1573 41.384 44.6107 40.4756 44.1997C39.5672 43.7868 39.6319 44.4227 38.0017 45.1765C36.3715 45.9284 37.04 46.0538 36.6496 46.0538C36.2592 46.0538 35.4193 46.3671 35.2232 46.9956C35.0289 47.6222 34.0577 49.4413 33.6025 50.8217C33.1492 52.2021 34.0577 52.5799 34.8423 53.7079C35.6288 54.8377 36.7143 54.3363 37.1695 54.963C37.6228 55.5914 37.1695 54.963 37.6228 55.7794C38.076 56.5941 37.6228 55.7794 39.2434 55.0054C40.8641 54.2331 40.6051 55.5914 41.4488 55.151C42.2905 54.7123 42.6143 55.2763 42.9057 56.7194C43.1971 58.1625 44.7549 56.2181 44.7549 56.2181L44.9491 57.3479C45.1434 58.4776 44.9491 57.3479 45.8309 59.5429C46.7127 61.7398 45.5967 60.1087 46.0518 61.0487C46.5051 61.9904 46.0518 61.0487 46.9583 62.1158C47.8667 63.1829 46.8936 63.5589 46.7641 64.0657C46.6346 64.5707 46.2461 65.0646 45.9128 65.553C45.5814 66.0414 46.3108 66.1944 46.9431 66.4451C47.5754 66.6957 47.0231 67.5122 46.9583 67.9324C46.8936 68.3526 47.0231 68.2641 47.4268 68.8926C47.8306 69.5192 47.9315 69.3312 48.32 70.1459C48.7085 70.9623 48.061 70.649 48.32 70.9605C48.579 71.2701 48.579 71.401 48.579 71.9041C48.579 72.4072 48.32 73.032 48.32 73.2845C48.32 73.537 48.9028 73.7858 49.2932 73.8485C49.6817 73.9112 49.2932 73.8485 49.8112 73.4099C50.3292 72.9694 51.3671 73.7858 51.5614 73.7858C51.7556 73.7858 52.8583 73.032 52.8583 73.032C52.8583 73.032 54.0257 72.2801 54.2847 72.1548C54.5437 72.0294 54.8027 70.9623 55.1265 70.461C55.4521 69.9579 55.7111 70.0832 56.1149 69.8325C56.5205 69.5819 56.3586 69.0806 56.1149 68.7028C55.8711 68.3268 56.6843 67.9324 56.6843 67.9324C56.6843 67.9324 57.2023 67.6375 57.2118 67.2597C57.2214 66.8837 57.0728 66.445 56.9433 65.9437C56.9052 65.7963 56.8176 65.7042 56.7148 65.6452C56.9109 65.6083 57.1052 65.4885 57.2118 65.1899C57.4804 64.438 57.5261 64.6886 57.8498 64.0657C58.1736 63.4409 58.7582 63.3709 59.7314 62.2411C60.7027 61.1113 59.6667 61.362 59.341 60.986C60.099 61.8651 58.564 60.422 58.4345 59.4802C58.2155 57.8989 58.1088 58.9808 58.0441 57.1599C57.9793 55.339 59.6324 54.4617 60.0875 54.211C60.5408 53.9585 60.8969 51.7635 61.3064 51.0742C61.7139 50.383 61.8053 49.9444 61.8053 49.5666C61.8053 49.1888 61.2873 47.5595 61.8053 46.4297C62.3234 45.3018 61.6111 45.112 61.3064 44.4466C61.0017 43.7795 60.1847 44.924 59.7314 44.5056C59.6533 44.4337 59.5429 44.3453 59.4058 44.2476C59.5829 44.1923 59.7238 44.0725 59.918 43.8274C60.6379 42.9169 61.0626 41.4056 61.653 42.3732C62.2415 43.339 61.4264 42.0341 63.5936 41.8166C65.7609 41.5992 66.1875 40.1487 66.8807 41.5641C67.5758 42.9796 66.934 42.5428 68.6556 43.1713C70.3753 43.7979 71.2076 43.4661 71.3028 44.4466C71.3999 45.4271 71.2818 46.0151 72.2436 45.6778C73.2034 45.3405 74.2528 45.628 73.4758 43.3629C73.0073 42.0028 71.9103 41.1458 71.459 40.357C71.7351 40.2593 71.9941 40.1487 72.1788 40.0307C72.8397 39.6068 73.7348 39.2788 74.447 38.748C75.1612 38.219 74.5118 36.9566 74.447 36.8884C74.3823 36.822 74.7708 34.6344 74.7708 34.6344C74.7708 34.6344 74.9669 35.1375 75.0317 35.5135C75.0964 35.8895 76.0677 35.7641 76.4562 35.6388C76.8466 35.5135 76.5229 34.9495 76.5229 34.321C76.5229 33.6926 76.7819 34.7597 77.3646 35.2002C77.9493 35.6388 79.2443 35.5761 79.829 35.7015C80.4117 35.8268 80.4117 36.7686 80.606 37.2699C80.8002 37.7712 82.1619 37.1446 82.7466 36.9916C83.3293 36.8386 83.9768 37.3325 84.6263 37.7085C84.8072 37.8154 85.0795 37.8799 85.3842 37.9149C85.3271 37.2312 85.249 36.5529 85.1557 35.8784ZM28.0434 30.9096C27.9215 31.0515 27.2417 31.5454 27.2417 31.5454C27.2417 31.5454 26.6589 32.1334 26.1238 32.1094C25.5886 32.0854 25.5638 31.5215 25.3448 31.2155C25.1258 30.9096 23.8632 30.8856 23.6442 30.9096C23.6442 30.9096 23.4975 30.3917 24.8097 30.5097C26.1238 30.6276 25.3696 30.5097 26.1714 30.3917C26.975 30.2737 28.1653 30.7677 28.0434 30.9096ZM34.5585 25.4745C33.732 25.4745 33.1987 25.7565 32.517 25.3344C31.8371 24.9105 31.6333 25.5685 30.3497 25.9924C29.0642 26.4163 28.5786 26.8863 27.9463 26.8863C27.314 26.8863 27.8492 28.486 27.5578 28.2519C27.4016 28.1248 26.9255 27.8925 26.518 27.7027C26.4266 27.7322 26.3371 27.723 26.2533 27.6953C26.0438 27.6253 25.8781 27.4299 25.8571 27.406C25.8857 27.417 26.179 27.5442 26.518 27.7027C26.7275 27.6345 26.9389 27.3618 27.0722 26.6503C27.4112 24.8165 27.8987 25.2386 28.0929 24.3926C28.2872 23.5448 27.4112 23.3347 28.7252 22.616C30.0374 21.899 29.6965 20.3453 30.6201 21.805C31.5457 23.2629 31.3991 23.6388 31.8847 23.7808C32.3722 23.9227 33.5873 23.6868 33.8786 24.0167C34.17 24.3447 35.387 25.4745 34.5585 25.4745Z" fill="url(#paint6_radial_997_3189)"/>
<path d="M26.518 27.7027C26.9255 27.8925 27.4016 28.1248 27.5578 28.2519C27.8492 28.486 27.314 26.8863 27.9463 26.8863C28.5786 26.8863 29.0642 26.4163 30.3497 25.9924C31.6333 25.5685 31.8371 24.9105 32.517 25.3344C33.1987 25.7565 33.732 25.4745 34.5585 25.4745C35.387 25.4745 34.17 24.3447 33.8786 24.0167C33.5873 23.6868 32.3722 23.9227 31.8847 23.7808C31.3991 23.6388 31.5457 23.2629 30.6201 21.805C29.6965 20.3453 30.0374 21.899 28.7252 22.616C27.4112 23.3347 28.2872 23.5448 28.0929 24.3926C27.8987 25.2386 27.4112 24.8165 27.0722 26.6503C26.9389 27.3618 26.7275 27.6345 26.518 27.7027ZM26.518 27.7027C26.4266 27.7322 26.3371 27.723 26.2533 27.6953C26.0438 27.6253 25.8781 27.4299 25.8571 27.406C25.8857 27.417 26.179 27.5442 26.518 27.7027ZM85.1557 35.8784C85.1557 35.8784 85.1538 35.8747 85.1538 35.8729C85.1081 35.5393 84.0435 35.5761 82.8761 35.8268C81.7087 36.0774 82.0972 35.2002 82.1219 35.0748C82.1448 34.9495 80.9964 34.697 80.4765 34.5717C79.9585 34.4464 80.8002 33.8197 81.2554 33.6317C81.7086 33.4438 82.6818 33.0033 83.7826 33.0143C84.1044 33.0162 84.373 32.9738 84.6224 32.9019L83.7369 29.5494H83.735C83.735 29.5494 83.0056 28.7367 82.6171 28.5431C82.539 28.5026 82.4095 28.5247 82.2438 28.5837L82.3009 28.4197C82.2971 28.3975 82.2933 28.3662 82.2914 28.3422C82.2343 28.3017 82.2025 28.2839 82.1962 28.2888L82.1219 28.486C82.1219 28.486 82.1314 28.5524 82.141 28.6224C81.4611 28.9025 80.2784 29.6913 79.2443 29.9291C77.8826 30.2424 78.5968 29.1145 77.9493 28.2096C77.2999 27.3046 78.1435 27.4189 78.1435 26.9176C78.1435 26.4163 77.6884 26.2283 77.5589 25.2865C77.4294 24.3447 78.014 24.2821 78.4025 23.4048C78.791 22.5256 77.8179 22.3377 77.5589 21.2005C77.2999 20.0634 77.2999 20.0781 77.2999 19.8274C77.2999 19.5768 75.3554 19.5768 75.0964 19.0128C74.8355 18.447 74.5765 18.5097 73.7462 18.0084C72.9159 17.5071 72.7616 18.3217 72.7616 18.3217C72.7616 18.3217 72.3731 18.071 72.0493 17.9457C71.7237 17.8204 71.6589 18.447 71.3428 19.2008C71.0266 19.9528 70.8819 19.0128 70.5581 18.071C70.2325 17.1293 70.5581 18.071 69.326 18.9502C68.9489 19.2192 68.7718 19.3575 68.6975 19.422C68.728 19.3814 68.7413 19.3261 68.6118 19.3261C68.2233 19.3261 67.8348 18.5723 67.9243 17.8831C68.0119 17.1938 68.0291 16.5653 68.2881 15.9497C68.5471 15.3341 69.0022 16.0013 69.9087 15.9497C70.8172 15.8981 71.2704 15.0595 71.3352 14.6209C71.3999 14.1804 71.08 14.3481 70.2972 14.9066C69.5164 15.465 69.585 14.9969 68.7413 14.3684C67.8996 13.7381 67.7053 14.5582 66.6026 14.8715C66.0694 15.0227 65.6447 14.6578 65.3457 14.2412C65.4504 13.9353 65.5304 13.7049 65.5647 13.6017C65.7609 13.0211 65.4352 13.1778 64.801 12.2139C64.1669 11.25 64.5592 11.9706 62.708 12.1733C60.8569 12.3761 61.8701 12.612 61.2207 12.2987C60.5732 11.9854 60.6379 12.3613 59.0534 12.7742C57.4689 13.1852 57.9146 13.0525 57.9146 13.6017C57.9146 14.1509 57.2023 14.0551 56.1644 14.1177C55.1265 14.1804 55.0617 13.4284 54.2847 12.6581C53.5058 11.8895 53.702 11.7347 53.182 11.1689C52.664 10.6049 52.7935 10.7303 52.664 10.5423C52.5345 10.3543 53.3763 9.60048 53.3763 9.60048C53.3763 9.60048 53.8315 8.5352 55.7759 8.22005C57.7203 7.90673 55.5169 7.46809 55.1931 7.53075C54.8675 7.59342 55.1931 7.53075 53.3763 7.65608C51.5614 7.78141 53.3763 7.65608 52.0146 8.22005C50.6548 8.78586 51.6909 8.22005 50.9786 8.97385C50.2644 9.7258 51.3024 10.1036 51.0434 11.1062C50.7843 12.1107 49.4874 10.8556 48.5143 10.2289C47.543 9.60048 48.2553 10.2289 47.802 11.5467C47.3468 12.8645 47.0231 11.672 44.953 10.9182C42.8809 10.1663 44.4311 11.0436 43.0047 11.9854C42.8885 12.0609 42.7876 12.1217 42.6981 12.1715C41.6773 12.7226 42.2106 11.6038 42.0315 11.5467C41.8373 11.4841 41.7725 11.2316 41.7078 10.5423C41.643 9.85297 41.5783 10.1663 41.1574 9.28716C40.7365 8.40988 40.7346 8.91118 38.5312 8.84852C36.3258 8.78586 38.2055 8.28271 38.2055 8.03206C38.2055 7.78141 39.0492 7.09211 40.6699 7.02945C42.2905 6.96679 39.4377 6.21299 38.4017 6.58897C37.3638 6.96679 37.817 7.02945 37.299 8.03206C36.7791 9.03651 36.9753 9.47515 36.4553 10.3045C35.9373 11.1339 36.1316 10.6049 34.8347 11.7347C33.5377 12.8645 33.9929 11.1062 33.0845 11.2316C32.1761 11.3587 32.3075 11.7974 31.3343 12.6581C30.3611 13.5206 29.129 11.7974 29.1956 12.6581C29.2604 13.5206 26.8608 12.9271 26.3428 13.1022C25.8229 13.2792 24.9811 12.9271 24.5259 12.3613C24.0727 11.7974 23.8137 11.4214 23.1014 11.4841C22.3872 11.5467 21.7397 10.9182 21.4141 10.5423C21.0903 10.1663 20.3133 10.2916 20.1191 10.5423C19.9229 10.7948 18.4965 10.7929 17.9785 10.5423C17.4605 10.2916 17.5252 10.9182 16.7463 11.86C15.9693 12.8018 16.4225 12.236 14.9314 13.058C13.6687 13.7547 13.6611 13.3123 12.8231 13.1262C12.4365 13.5151 12.0595 13.9113 11.69 14.3168C11.8919 14.3205 12.0804 14.3149 12.208 14.3076C12.7508 14.2726 13.9582 14.4329 13.5049 14.9342C13.0517 15.4355 12.9869 15.4355 10.9777 16.5026C9.9322 17.0574 9.61416 17.0961 9.40848 17.0353C7.29075 19.7906 5.52343 22.8132 4.17127 26.0421C4.56549 26.748 4.99209 26.9323 5.14444 27.4189C5.3425 28.0474 5.82052 28.3459 5.94431 28.9099C6.0681 29.4739 5.53104 29.7411 5.46629 31.6228C5.40154 33.5064 5.8548 32.4393 5.88527 33.7571C5.91574 35.0748 5.66055 34.7597 5.27204 35.2002C4.88353 35.6388 5.46629 35.7015 5.96716 36.2654C6.46803 36.8294 5.5958 36.9566 5.96716 37.0819C6.05096 37.1095 6.11761 37.1593 6.16903 37.2146C6.1976 37.2883 6.23569 37.3713 6.2833 37.4579C6.29472 37.5998 6.22426 37.7325 6.04905 37.7712C5.68911 37.8541 6.6261 38.748 6.6261 38.748L6.69847 41.3909C7.01841 42.2055 4.26078 41.5439 3.84561 42.3179C3.26286 43.4016 2.15828 43.175 1.12988 43.1621C1.58885 53.6028 6.09857 63.0281 13.1755 70.0076C14.1696 68.9239 14.8361 67.5785 15.0609 66.3824C15.4456 64.3329 17.1177 66.093 18.8183 65.0904L23.2309 59.7936C25.2325 57.5174 23.7546 55.0717 21.3493 54.681C21.4388 54.4506 21.5283 54.2184 21.6159 53.9862C20.1152 52.8306 19.2487 51.6898 18.6279 52.4841C18.0089 52.5062 13.1812 47.1522 14.6171 42.6478C14.6647 42.5022 14.878 42.3972 14.9885 42.2903C14.6781 42.1078 14.301 41.7927 14.0896 41.5089C14.1601 41.3393 14.2534 41.1163 14.3219 40.9467C12.3432 41.0757 10.9892 38.7517 8.81811 39.6363C8.74383 39.9294 8.63909 40.3183 8.5572 40.6076C8.42579 40.5615 8.25249 40.5007 8.12108 40.4546C8.18964 40.0787 8.39088 39.5853 8.72479 38.9747C8.74193 38.8438 7.27361 37.7712 6.63181 37.2164C6.60134 37.1906 6.5861 37.1556 6.5861 37.1151C6.5861 36.717 7.90017 35.6664 8.25439 35.3255C8.6429 34.9495 9.55132 34.6344 9.48657 33.9451C9.42182 33.2539 8.57815 33.4438 7.72305 32.69C6.86987 31.938 8.15727 32.5886 8.74003 31.8975C9.32278 31.2082 9.62369 31.4349 10.2712 31.6855C10.9206 31.938 11.4881 31.7095 11.4881 31.7095C11.4881 31.7095 11.5357 30.1798 9.68082 29.1145C9.08854 28.7735 7.86398 30.3751 7.28122 27.3341C7.07935 26.2854 9.22566 25.9131 9.55132 25.6625C9.87507 25.4118 11.949 24.47 12.8574 25.4118C13.7639 26.3536 13.6344 25.8505 15.1256 27.7967C16.6168 29.7411 15.8398 29.6784 16.9405 31.6855C18.0432 33.6944 17.9137 32.7526 18.367 32.8153C18.8221 32.8779 20.5723 31.6228 21.1551 31.4349C21.7397 31.2469 22.7757 31.938 23.4899 31.8108C24.2022 31.6855 26.0819 33.1286 26.278 33.0659C26.4723 33.0033 26.9255 32.4393 27.314 32.7526C27.7025 33.0659 28.5462 33.7571 28.5462 33.7571C28.5462 33.7571 29.129 32.1887 29.4546 31.6855C29.7784 31.1842 30.6849 31.0589 31.3991 29.8038C32.1113 28.5487 31.6581 28.674 32.0466 28.2851C32.437 27.8962 32.955 28.1727 33.6025 28.2851C34.2519 28.3975 33.6672 27.2936 33.5377 26.7296C33.4082 26.1656 34.7052 26.291 35.2898 26.0403C35.8726 25.7878 35.7431 25.4118 36.1963 24.9105C36.6496 24.4074 36.2611 24.0314 36.1963 23.5301C36.1316 23.027 35.7431 22.5256 35.5488 22.616C35.3546 22.7081 35.3546 21.3332 35.5488 21.1452C35.7431 20.9572 36.7791 20.9572 37.2343 20.7066C37.6875 20.4559 36.1963 20.0154 35.8726 19.4515C35.5488 18.8875 36.2611 18.259 36.5201 17.5697C36.7791 16.8786 38.0113 16.44 39.4377 15.6954C40.8641 14.9508 40.0224 15.2475 40.9289 15.0595C41.8373 14.8715 41.7078 14.7462 41.7078 13.6017C41.7078 12.4572 43.458 12.5493 44.3645 13.351C45.2729 14.1528 45.0139 14.1804 45.9128 15.441C46.8136 16.6998 46.5698 15.5608 47.4268 16.44C48.2838 17.3191 48.2553 17.1938 49.6169 18.5723C50.1159 19.0792 50.3539 19.2819 50.5082 19.3501C50.4511 19.7132 50.4549 19.9896 50.4492 20.2237C50.4435 20.4559 50.4282 20.6439 50.3311 20.8319C50.1349 21.2079 49.9407 21.0826 50.1349 22.1497C50.3292 23.2168 51.0453 23.9061 50.5253 24.1567C50.0054 24.4074 49.5522 24.5972 49.0989 25.5372C48.6438 26.4789 48.579 26.8549 48.579 27.8594C48.579 28.8638 47.0193 29.9586 46.8936 30.3751C46.865 30.4709 46.7507 30.6165 46.5965 30.7824C45.6957 30.7566 44.4292 30.8211 44.1055 31.2432C43.717 31.7482 43.0028 32.126 42.9057 32.6273C42.8086 33.1286 42.2258 34.0077 41.7725 34.0077C41.3193 34.0077 41.0584 33.6944 40.8641 34.6344C40.6699 35.5761 40.9898 36.3078 40.2623 36.8884C39.5348 37.4708 39.8909 37.9684 39.3082 38.2467C38.7254 38.525 38.4017 40.2187 38.6607 40.5947C38.9197 40.9725 38.8035 41.6618 38.5693 41.7245C38.3369 41.7872 38.6607 42.9796 38.6607 42.9796C39.3482 43.8274 38.6931 44.1094 40.5727 43.8274C42.4524 43.5436 42.0011 42.4156 43.3132 41.7558C44.6254 41.0979 44.8901 41.4112 45.1148 41.9438C45.3376 42.4783 44.0731 43.6689 45.4995 42.9796C46.926 42.2903 46.7184 40.8122 47.4268 41.9125C48.1353 43.0128 48.0934 43.1049 48.3848 43.4182C48.6761 43.7334 49.2608 43.9748 49.9083 44.1997C50.5558 44.4227 49.8283 43.3316 52.2755 43.8274C54.7208 44.3213 51.8204 45.0899 55.5169 44.5056C55.6426 44.4853 55.7645 44.4669 55.8825 44.4503C56.0101 44.6199 56.1149 44.736 56.1149 44.736C56.1149 44.736 53.441 45.6151 52.3403 45.4271C51.2376 45.2391 50.3939 44.6107 48.7733 45.0493C47.1526 45.4898 48.2553 45.4898 47.4268 46.1164C46.5984 46.7449 45.4024 45.9911 44.1055 45.7736C42.8086 45.5561 42.6143 44.1094 42.42 44.1333C42.2258 44.1573 41.384 44.6107 40.4756 44.1997C39.5672 43.7868 39.6319 44.4227 38.0017 45.1765C36.3715 45.9284 37.04 46.0538 36.6496 46.0538C36.2592 46.0538 35.4193 46.3671 35.2232 46.9956C35.0289 47.6222 34.0577 49.4413 33.6025 50.8217C33.1492 52.2021 34.0576 52.5799 34.8423 53.7079C35.6288 54.8377 36.7143 54.3363 37.1695 54.963C37.6228 55.5914 37.1695 54.963 37.6228 55.7794C38.076 56.5941 37.6228 55.7794 39.2434 55.0054C40.8641 54.2331 40.6051 55.5914 41.4488 55.151C42.2905 54.7123 42.6143 55.2763 42.9057 56.7194C43.1971 58.1625 44.7549 56.2181 44.7549 56.2181L44.9491 57.3479C45.1434 58.4776 44.9491 57.3479 45.8309 59.5429C46.7127 61.7398 45.5967 60.1087 46.0518 61.0487C46.5051 61.9904 46.0518 61.0487 46.9583 62.1158C47.8667 63.1829 46.8936 63.5589 46.7641 64.0657C46.6346 64.5707 46.2461 65.0646 45.9128 65.553C45.5814 66.0414 46.3108 66.1944 46.9431 66.4451C47.5754 66.6957 47.0231 67.5122 46.9583 67.9324C46.8936 68.3526 47.0231 68.2641 47.4268 68.8926C47.8306 69.5192 47.9315 69.3312 48.32 70.1459C48.7085 70.9623 48.061 70.649 48.32 70.9605C48.579 71.2701 48.579 71.401 48.579 71.9041C48.579 72.4073 48.32 73.032 48.32 73.2845C48.32 73.537 48.9028 73.7858 49.2932 73.8485C49.6817 73.9112 49.2932 73.8485 49.8112 73.4099C50.3292 72.9694 51.3671 73.7858 51.5614 73.7858C51.7556 73.7858 52.8583 73.032 52.8583 73.032C52.8583 73.032 54.0257 72.2801 54.2847 72.1548C54.5437 72.0294 54.8027 70.9623 55.1265 70.461C55.4521 69.9579 55.7111 70.0832 56.1149 69.8325C56.5205 69.5819 56.3586 69.0806 56.1149 68.7028C55.8711 68.3268 56.6843 67.9324 56.6843 67.9324C56.6843 67.9324 57.2023 67.6375 57.2118 67.2597C57.2214 66.8837 57.0728 66.4451 56.9433 65.9437C56.9052 65.7963 56.8176 65.7042 56.7148 65.6452C56.9109 65.6083 57.1052 65.4885 57.2118 65.1899C57.4804 64.438 57.5261 64.6886 57.8498 64.0657C58.1736 63.4409 58.7582 63.3709 59.7314 62.2411C60.7027 61.1113 59.6667 61.362 59.341 60.986C60.099 61.8651 58.564 60.422 58.4345 59.4802C58.2155 57.8989 58.1088 58.9808 58.0441 57.1599C57.9793 55.339 59.6324 54.4617 60.0875 54.211C60.5408 53.9585 60.8969 51.7635 61.3064 51.0742C61.7139 50.383 61.8053 49.9444 61.8053 49.5666C61.8053 49.1888 61.2873 47.5595 61.8053 46.4297C62.3234 45.3018 61.6111 45.112 61.3064 44.4466C61.0017 43.7795 60.1847 44.924 59.7314 44.5056C59.6533 44.4337 59.5429 44.3453 59.4057 44.2476C59.5829 44.1923 59.7238 44.0725 59.918 43.8274C60.6379 42.9169 61.0626 41.4056 61.653 42.3732C62.2415 43.339 61.4264 42.0341 63.5936 41.8166C65.7609 41.5992 66.1875 40.1487 66.8807 41.5641C67.5758 42.9796 66.934 42.5428 68.6556 43.1713C70.3753 43.7979 71.2076 43.4662 71.3028 44.4466C71.3999 45.4271 71.2818 46.0151 72.2436 45.6778C73.2034 45.3405 74.2528 45.628 73.4758 43.3629C73.0073 42.0028 71.9103 41.1458 71.459 40.357C71.7351 40.2593 71.9941 40.1487 72.1788 40.0307C72.8397 39.6068 73.7348 39.2788 74.447 38.748C75.1612 38.219 74.5118 36.9566 74.447 36.8884C74.3823 36.822 74.7708 34.6344 74.7708 34.6344C74.7708 34.6344 74.9669 35.1375 75.0317 35.5135C75.0964 35.8895 76.0677 35.7641 76.4562 35.6388C76.8466 35.5135 76.5229 34.9495 76.5229 34.321C76.5229 33.6926 76.7819 34.7597 77.3646 35.2002C77.9493 35.6388 79.2443 35.5761 79.829 35.7015C80.4117 35.8268 80.4117 36.7686 80.606 37.2699C80.8002 37.7712 82.1619 37.1446 82.7466 36.9916C83.3293 36.8386 83.9768 37.3325 84.6263 37.7085C84.8072 37.8154 85.0795 37.8799 85.3842 37.9149C85.3271 37.2312 85.249 36.5529 85.1557 35.8784ZM28.0434 30.9096C27.9215 31.0515 27.2417 31.5454 27.2417 31.5454C27.2417 31.5454 26.6589 32.1334 26.1238 32.1094C25.5886 32.0854 25.5638 31.5215 25.3448 31.2155C25.1258 30.9096 23.8632 30.8856 23.6442 30.9096C23.6442 30.9096 23.4975 30.3917 24.8097 30.5097C26.1238 30.6276 25.3696 30.5097 26.1714 30.3917C26.975 30.2737 28.1653 30.7677 28.0434 30.9096Z" stroke="#231F20" stroke-width="0.368392" stroke-miterlimit="10"/>
<path d="M84.6913 38.7504C84.497 38.8481 83.9143 38.0867 83.9143 38.0867C83.9143 38.0867 83.202 38.5254 82.2117 38.7504C81.2233 38.9734 81.7089 38.9034 81.1909 39.6556C81.1909 39.6556 81.7737 39.6556 82.3012 40.0317C82.8287 40.4078 85.5369 40.0317 85.5369 40.0317V38.7485C85.5369 38.7485 84.8855 38.6508 84.6913 38.7485V38.7504Z" fill="url(#paint7_radial_997_3189)" stroke="#231F20" stroke-width="0.184196" stroke-miterlimit="10"/>
<g style="mix-blend-mode:multiply">
<path d="M12.6155 50.0506L16.3977 50.0174C16.6358 50.5888 16.5101 50.9058 17.0128 51.1693C17.5137 51.4329 17.9955 51.5619 18.8506 51.5637C19.8181 51.5656 20.4618 51.42 21.1398 51.1767C21.8177 50.9334 22.2558 50.6035 22.4538 50.1852C22.6119 49.8534 22.5357 49.577 22.2272 49.3521C21.9187 49.1273 21.6521 48.9319 20.677 48.7089C20.5456 48.6757 20.3551 48.6315 20.1037 48.578C18.3955 48.1892 17.2357 47.8611 16.6205 47.5902C16.0092 47.3303 15.6074 46.9967 15.4093 46.5931C15.2131 46.1895 15.236 45.7324 15.4779 45.2237C15.8892 44.3593 16.8033 43.659 18.2203 43.1227C19.6372 42.5863 21.2826 42.3191 23.1566 42.3228C24.7963 42.3265 26.0685 42.5255 26.9731 42.9218C27.6682 43.2259 28.1386 43.6424 28.3843 44.1695C28.4585 44.328 28.5118 44.9196 28.5442 45.0984L24.6687 45.091C24.4916 44.61 24.4478 44.5086 23.9983 44.2875C23.5489 44.0681 22.9204 43.9576 22.1091 43.9557C21.3226 43.9557 20.656 44.0552 20.1056 44.258C19.5553 44.4607 19.1972 44.7372 19.0296 45.0873C18.7725 45.6292 19.6372 46.1452 21.6254 46.6355C22.2367 46.7866 22.7147 46.9064 23.0594 46.9986C24.7068 47.439 25.758 47.8887 26.2094 48.3458C26.6607 48.8029 26.7122 49.3982 26.3636 50.1336C25.8932 51.1214 24.941 51.8973 23.507 52.4613C22.0729 53.0253 20.3361 53.3036 18.3002 53.2999C16.531 53.2962 15.1236 53.0806 14.1086 52.6419C12.6002 51.9913 12.6155 50.9205 12.6155 50.0488V50.0506Z" fill="#96814D"/>
<path d="M39.352 51.3426C38.9482 51.8937 37.7961 52.6106 36.7772 52.8852C35.7583 53.1598 34.5966 53.2962 33.2863 53.2962C31.3971 53.2944 29.9993 52.9479 29.0947 52.2586C28.1901 51.5693 27.872 50.6036 28.1405 49.3632C28.4091 48.1228 29.1461 47.1534 30.3478 46.4567C31.5495 45.7601 33.0807 45.4117 34.9451 45.4136C36.7981 45.4154 38.1655 45.7545 39.0416 46.4309C39.9195 47.1073 40.2242 48.0546 39.9595 49.2766C39.95 49.319 39.9309 49.3835 39.9043 49.4719C39.8757 49.5586 39.8586 49.6249 39.849 49.6673H31.3724C31.2333 50.3824 31.3762 50.9206 31.799 51.2836C32.2218 51.6449 32.9245 51.8255 33.9091 51.8273C34.5242 51.8273 35.0746 51.7518 35.5602 51.5988C36.0459 51.4458 36.1182 51.3168 36.3182 51.1767L39.3501 51.3463L39.352 51.3426ZM31.7076 48.368L36.8743 48.3735C36.9848 47.8685 36.84 47.4741 36.4458 47.1903C36.0497 46.9064 35.4517 46.7645 34.6537 46.7645C33.8977 46.7645 33.2635 46.9027 32.7493 47.1829C32.2351 47.463 31.8885 47.8574 31.7076 48.368Z" fill="#96814D"/>
<path d="M41.8774 44.4442V42.7708H45.4597V44.4442H41.8774ZM41.8774 53.1489V45.6717H45.4597V53.1489H41.8774Z" fill="#96814D"/>
<path d="M49.5254 53.1929L48.5979 42.4499L58.8762 42.3301L59.2361 44.0736L52.3516 44.1436L52.5706 46.6833L59.4799 46.5654L59.8988 48.3715L52.7191 48.3992L52.9115 50.9094L61.9804 50.7564L62.3994 53.0068L49.5254 53.1929Z" fill="#96814D"/>
<path d="M65.523 53.1574L61.5237 45.6452L64.5765 45.6397L64.9307 46.5465C65.6506 46.1594 66.3076 45.8848 66.9018 45.7245C67.496 45.5642 68.1416 45.4831 68.8367 45.4812C70.1413 45.4794 71.204 45.6876 72.0229 46.106C72.8437 46.5244 73.4131 47.1455 73.735 47.9693L76.8201 53.139L73.5064 53.1445L70.5564 48.325C70.3641 47.8292 70.1051 47.4791 69.7794 47.2708C69.4557 47.0644 69.0062 46.9612 68.4311 46.9612C67.9436 46.9612 67.4732 47.0312 67.018 47.1713C66.5628 47.3095 66.1096 47.5251 65.6582 47.8163L68.8082 53.1501L65.5211 53.1556L65.523 53.1574Z" fill="#96814D"/>
</g>
<path d="M9.6941 43.4997L13.6496 43.4057C13.8972 45.0331 13.7677 45.9325 14.2914 46.6808C14.8151 47.4291 15.3198 47.7958 16.213 47.8013C17.2243 47.8069 17.8984 47.3959 18.6069 46.7029C19.3153 46.0099 19.7724 45.07 19.98 43.8831C20.1438 42.9413 20.0657 42.1525 19.7438 41.5148C19.422 40.8771 19.142 40.3205 18.1232 39.6846C17.986 39.5888 17.7861 39.4635 17.5233 39.3123C15.7369 38.2084 14.5238 37.2721 13.882 36.5036C13.244 35.7627 12.8212 34.8172 12.6155 33.669C12.4098 32.5208 12.4327 31.2233 12.686 29.7765C13.1164 27.3198 14.0705 25.3274 15.5541 23.7996C17.0357 22.2717 18.7573 21.5142 20.7151 21.5253C22.4291 21.5363 23.7603 22.104 24.7068 23.2301C25.4343 24.0963 25.9256 25.2795 26.1808 26.7797C26.257 27.2313 26.3142 28.914 26.3484 29.4226L22.2958 29.3987C22.1091 28.0312 22.0634 27.74 21.5949 27.1152C21.1265 26.4904 20.4675 26.1752 19.6181 26.1715C18.7688 26.1679 18.0984 26.4535 17.5233 27.0304C16.9481 27.6073 16.5729 28.3942 16.3996 29.3895C16.1292 30.9321 17.0338 32.3991 19.1135 33.7906C19.7514 34.2182 20.2523 34.5629 20.6123 34.8246C22.3358 36.0778 23.4327 37.355 23.9069 38.6562C24.3792 39.9574 24.4326 41.6512 24.0688 43.7393C23.5775 46.5499 22.5814 48.7579 21.0807 50.3595C19.5801 51.9629 17.7651 52.7572 15.636 52.7443C13.7867 52.7333 12.3146 52.1177 11.2538 50.8737C9.67696 49.0214 9.6941 45.9786 9.6941 43.4997Z" fill="url(#paint8_linear_997_3189)" stroke="#231F20" stroke-width="0.552588" stroke-miterlimit="10"/>
<path d="M37.6455 47.1726C37.2227 48.7392 36.0172 50.7757 34.9545 51.559C33.8918 52.3423 32.673 52.7294 31.3056 52.7257C29.3307 52.7201 27.87 51.736 26.9235 49.7731C25.977 47.8103 25.6456 45.066 25.9275 41.5366C26.2093 38.0072 26.9787 35.2519 28.2337 33.2706C29.4907 31.2875 31.0923 30.2997 33.0405 30.3052C34.9888 30.3107 36.4076 31.2746 37.3236 33.1969C38.2416 35.1192 38.5615 37.8174 38.2835 41.2915C38.2739 41.4131 38.2549 41.5974 38.2244 41.8444C38.1959 42.0932 38.1768 42.2775 38.1673 42.3973L29.304 42.3918C29.1593 44.432 29.3078 45.9654 29.7497 46.992C30.1915 48.0204 30.9266 48.5346 31.955 48.5383C32.5987 48.5401 33.1739 48.3245 33.6823 47.8896C34.1908 47.4546 34.2651 47.0842 34.4765 46.6897L37.6455 47.1708V47.1726ZM29.6525 38.7113L35.0554 38.7278C35.1697 37.2921 35.0212 36.1716 34.6079 35.3643C34.1946 34.5571 33.57 34.1534 32.7339 34.1516C31.9436 34.1498 31.2808 34.546 30.7438 35.344C30.2067 36.1402 29.843 37.2645 29.6545 38.7131L29.6525 38.7113Z" fill="url(#paint9_linear_997_3189)" stroke="#231F20" stroke-width="0.552588" stroke-miterlimit="10"/>
<path d="M40.2869 27.5562V22.7993H44.0329V27.5562H40.2869ZM40.2869 52.3136V31.045H44.0329V52.3136H40.2869Z" fill="url(#paint10_linear_997_3189)" stroke="#231F20" stroke-width="0.552588" stroke-miterlimit="10"/>
<path d="M48.2838 52.4383L47.3145 21.8808L58.1431 21.8274L58.503 26.5658L51.2395 26.6985L51.468 33.9214L58.6916 33.5859L59.1296 38.7261L51.6242 38.8072L51.8261 45.9453L61.333 45.8771L61.7825 52.4383H48.2857H48.2838Z" fill="url(#paint11_linear_997_3189)" stroke="#231F20" stroke-width="0.552588" stroke-miterlimit="10"/>
<path d="M65.0085 52.3375L61.8833 30.5289L65.0751 30.5142L65.4446 33.0963C66.1969 31.9941 66.8825 31.2164 67.5052 30.7593C68.1261 30.3022 68.8002 30.0718 69.5277 30.0682C70.8913 30.0626 72.0016 30.6542 72.8605 31.843C73.7175 33.0317 74.3136 34.7992 74.6507 37.1435L76.8198 52.2859L73.3556 52.3006L71.3293 38.1554C71.1275 36.7455 70.857 35.7484 70.518 35.1586C70.179 34.5707 69.7086 34.2776 69.1087 34.2795C68.6003 34.2813 68.107 34.4804 67.6309 34.8766C67.1548 35.2729 66.6806 35.8848 66.2083 36.7141L68.446 52.3227L65.0085 52.3375Z" fill="url(#paint12_linear_997_3189)" stroke="#231F20" stroke-width="0.552588" stroke-miterlimit="10"/>
<path d="M41.5229 62.1907H39.668V73.7686H41.5229V62.1907Z" fill="#788CA0"/>
<path d="M49.7104 69.7975L48.1773 69.2446L47.5565 69.0216L47.4193 69.6501C47.326 70.0758 47.1641 70.4076 46.9394 70.6398C46.7471 70.837 46.5395 70.9291 46.29 70.9291C46.0253 70.9291 45.6882 70.8554 45.4273 70.2859C45.1645 69.7127 45.0312 68.7746 45.0312 67.5011C45.0312 66.2276 45.1664 65.1973 45.433 64.5762C45.6996 63.9588 46.012 63.8795 46.2557 63.8795C46.4995 63.8795 46.6652 63.9533 46.8175 64.1191C47.008 64.3274 47.1508 64.6647 47.2422 65.1181L47.366 65.7355L47.9831 65.5383L49.518 65.048L49.9846 64.8987L49.9027 64.4306C49.7142 63.3451 49.32 62.4917 48.7296 61.8928C48.1087 61.2624 47.3089 60.9436 46.3529 60.9436C44.9988 60.9436 43.9418 61.561 43.2124 62.7793C42.5421 63.898 42.2012 65.4811 42.2012 67.4845C42.2012 69.4879 42.5135 71.0876 43.1553 72.1824C43.8485 73.3638 44.8921 73.9628 46.2557 73.9628C47.2441 73.9628 48.0821 73.6421 48.7486 73.0081C49.3866 72.4017 49.8323 71.5337 50.0722 70.4297L50.1732 69.9634L49.7123 69.7975H49.7104Z" fill="#788CA0"/>
<path d="M38.7424 72.9937V61.4158H40.5974V72.9937H38.7424Z" fill="white" stroke="#231F20" stroke-width="0.552588" stroke-miterlimit="10"/>
<path d="M45.5144 73.4633C44.2594 73.4633 43.2996 72.9104 42.6616 71.823C42.0522 70.7854 41.7437 69.2502 41.7437 67.2615C41.7437 65.2729 42.0712 63.7708 42.7149 62.6945C43.3891 61.5684 44.3623 60.9971 45.6078 60.9971C46.4819 60.9971 47.2113 61.2883 47.7769 61.8596C48.3254 62.4162 48.6949 63.2216 48.8758 64.2519L48.9158 64.4859L46.8399 65.1494L46.779 64.8416C46.6781 64.3385 46.5143 63.9588 46.2896 63.7119C46.0839 63.487 45.8306 63.3783 45.5144 63.3783C45.0345 63.3783 44.6803 63.6621 44.4289 64.2463C44.1471 64.9006 44.0042 65.9216 44.0042 67.2781C44.0042 68.6346 44.1452 69.5672 44.4251 70.1754C44.6784 70.7264 45.0345 70.9826 45.5487 70.9826C45.8782 70.9826 46.1581 70.8591 46.4057 70.6066C46.6685 70.3375 46.8552 69.9597 46.958 69.4842L47.0266 69.1709L49.1024 69.9173L49.051 70.1496C48.8225 71.2001 48.4035 72.0202 47.8055 72.5879C47.1942 73.1684 46.4229 73.4633 45.5125 73.4633H45.5144Z" fill="white"/>
<path d="M45.6098 61.2746C46.4078 61.2746 47.061 61.5345 47.5714 62.0523C48.0837 62.5702 48.4246 63.3204 48.5941 64.299L47.0591 64.7892C46.9487 64.2345 46.762 63.8143 46.503 63.5305C46.244 63.2466 45.9126 63.1029 45.5127 63.1029C44.9109 63.1029 44.4596 63.4494 44.1625 64.1405C43.8654 64.8335 43.7168 65.8785 43.7168 67.2773C43.7168 68.6762 43.8654 69.6383 44.1625 70.287C44.4596 70.9358 44.9223 71.2583 45.547 71.2583C45.9545 71.2583 46.3107 71.1035 46.6116 70.7957C46.9125 70.4879 47.1201 70.0695 47.2362 69.5406L48.7712 70.0935C48.5541 71.0943 48.1637 71.8591 47.6057 72.3917C47.0477 72.9225 46.3488 73.1879 45.5127 73.1879C44.3624 73.1879 43.494 72.6885 42.9074 71.6877C42.3209 70.6869 42.0276 69.2125 42.0276 67.2626C42.0276 65.3127 42.338 63.8733 42.9608 62.8338C43.5835 61.7943 44.4653 61.2746 45.606 61.2746M45.606 60.7217C44.252 60.7217 43.195 61.3391 42.4656 62.5573C41.7952 63.6761 41.4543 65.2592 41.4543 67.2626C41.4543 69.266 41.7667 70.8657 42.4085 71.9605C43.0922 73.1253 44.1644 73.7408 45.5089 73.7408C46.4973 73.7408 47.3353 73.4202 48.0018 72.7862C48.6398 72.1798 49.0854 71.3117 49.3254 70.2078L49.4263 69.7415L48.9655 69.5756L47.4305 69.0227L46.8096 68.7997L46.6725 69.4282C46.5792 69.8539 46.4173 70.1856 46.1926 70.4179C46.0002 70.6151 45.7927 70.7072 45.5432 70.7072C45.2785 70.7072 44.9414 70.6335 44.6805 70.064C44.4177 69.4908 44.2843 68.5527 44.2843 67.2792C44.2843 66.0057 44.4196 64.9754 44.6862 64.3543C44.9528 63.7369 45.2651 63.6576 45.5089 63.6576C45.7527 63.6576 45.9184 63.7313 46.0707 63.8972C46.2612 64.1055 46.404 64.4428 46.4954 64.8961L46.6192 65.5136L47.2362 65.3164L48.7712 64.8261L49.2378 64.6768L49.1559 64.2087C48.9674 63.1232 48.5731 62.2698 47.9828 61.6708C47.3619 61.0405 46.5621 60.7217 45.606 60.7217Z" fill="#231F20"/>
<path d="M32.0277 17.7477C31.5992 17.7477 31.224 17.6961 30.9041 17.5928C30.5841 17.4896 30.3099 17.3348 30.0852 17.1321C29.83 16.898 29.649 16.6179 29.5443 16.2935C29.4396 15.9673 29.3862 15.5674 29.3862 15.09V10.9119H30.3575V15.09C30.3575 15.3996 30.3784 15.6595 30.4203 15.8696C30.4622 16.0797 30.546 16.2714 30.6717 16.4391C30.8031 16.6197 30.9802 16.7561 31.205 16.8483C31.4297 16.9404 31.7039 16.9883 32.0277 16.9883C32.3324 16.9883 32.6028 16.9423 32.8371 16.8483C33.0732 16.7561 33.2561 16.6197 33.3875 16.4391C33.5093 16.2677 33.5912 16.0797 33.635 15.8715C33.6788 15.665 33.7017 15.4107 33.7017 15.1121V10.9119H34.673V15.09C34.673 15.5545 34.6215 15.9526 34.5187 16.2861C34.4159 16.6197 34.2349 16.8999 33.9759 17.1321C33.7436 17.3385 33.4732 17.4933 33.1627 17.5947C32.8523 17.6961 32.4752 17.7477 32.0258 17.7477H32.0277Z" fill="#F8EC22" stroke="#F8EC22" stroke-width="0.184196" stroke-miterlimit="10"/>
<path d="M40.6471 17.6082H39.7234V17.0498C39.5787 17.1641 39.4416 17.2636 39.3102 17.3502C39.1788 17.4368 39.0474 17.5105 38.9122 17.5677C38.7769 17.6267 38.6417 17.6709 38.5027 17.7004C38.3637 17.7299 38.2151 17.7446 38.059 17.7446C37.8209 17.7446 37.5962 17.7096 37.3867 17.6396C37.1772 17.5695 36.9944 17.4571 36.8382 17.3041C36.6821 17.1512 36.5602 16.954 36.4707 16.7125C36.3812 16.4711 36.3354 16.1817 36.3354 15.8426V10.6084H37.2591V12.5823H40.6471V13.3287H37.2591V15.4427C37.2591 15.6952 37.2705 15.9145 37.2915 16.1043C37.3124 16.2923 37.36 16.449 37.4343 16.5724C37.5086 16.6959 37.6133 16.7881 37.7485 16.8489C37.8838 16.9097 38.0685 16.9411 38.3008 16.9411C38.4113 16.9411 38.5294 16.9263 38.6551 16.8931C38.7807 16.86 38.9045 16.8176 39.0283 16.7623C39.1521 16.707 39.274 16.6425 39.3921 16.5688C39.5101 16.495 39.6206 16.4158 39.7254 16.3329V14.3903H40.649V17.6064L40.6471 17.6082Z" fill="#F8EC22" stroke="#F8EC22" stroke-width="0.184196" stroke-miterlimit="10"/>
<path d="M43.1497 12.5884V17.7507C43.1497 18.0382 43.1059 18.2889 43.0202 18.5008C42.9326 18.7146 42.8088 18.8915 42.6469 19.0335C42.4851 19.1754 42.287 19.2823 42.0527 19.3523C41.8185 19.4223 41.5538 19.4574 41.2605 19.4574H40.554V18.7109H41.0834C41.3214 18.7109 41.5157 18.6907 41.6642 18.6483C41.8128 18.6059 41.929 18.534 42.0128 18.4326C42.0966 18.3313 42.1518 18.1967 42.1823 18.0308C42.2108 17.865 42.2261 17.6549 42.2261 17.4042V12.5884H43.1497Z" fill="#F8EC22" stroke="#F8EC22" stroke-width="0.184196" stroke-miterlimit="10"/>
<path d="M44.7493 10.9119H45.7205V12.5853H49.638V13.376H45.7205V16.8169H49.6437V17.6076H44.7493V10.9119Z" fill="#F8EC22" stroke="#F8EC22" stroke-width="0.184196" stroke-miterlimit="10"/>
<path d="M55.399 17.6082H54.4753V17.0498C54.3306 17.1641 54.1935 17.2636 54.0621 17.3502C53.9307 17.4368 53.7993 17.5105 53.664 17.5677C53.5288 17.6267 53.3936 17.6709 53.2546 17.7004C53.1156 17.7299 52.967 17.7446 52.8108 17.7446C52.5728 17.7446 52.3462 17.7078 52.1367 17.6359C51.9253 17.564 51.7406 17.4497 51.5844 17.2949C51.4263 17.1383 51.3044 16.9429 51.2187 16.7088C51.1311 16.4729 51.0892 16.1854 51.0892 15.8426V11.3548H50.0532V10.6084H52.0129V15.4427C52.0129 15.7099 52.0243 15.9311 52.0453 16.1062C52.0662 16.2812 52.1157 16.4361 52.19 16.5669C52.2643 16.6959 52.3671 16.7899 52.4966 16.8507C52.6261 16.9116 52.8108 16.9411 53.0546 16.9411C53.2812 16.9411 53.5212 16.8821 53.7764 16.766C54.0354 16.6462 54.2697 16.5024 54.4791 16.3347V12.5841H55.4028V17.6064L55.399 17.6082Z" fill="#F8EC22" stroke="#F8EC22" stroke-width="0.184196" stroke-miterlimit="10"/>
<path d="M108.112 17.5897H109.583L113.044 26.0414H113.163L116.623 17.5897H118.095V27.7715H116.941V20.0357H116.842L113.66 27.7715H112.547L109.365 20.0357H109.265V27.7715H108.112V17.5897ZM123.61 27.9306C122.874 27.9306 122.239 27.7682 121.705 27.4434C121.175 27.1152 120.766 26.6578 120.477 26.0712C120.192 25.4812 120.05 24.7952 120.05 24.013C120.05 23.2308 120.192 22.5414 120.477 21.9448C120.766 21.3449 121.167 20.8775 121.681 20.5428C122.198 20.2047 122.801 20.0357 123.49 20.0357C123.888 20.0357 124.281 20.102 124.669 20.2346C125.056 20.3671 125.409 20.5826 125.727 20.8809C126.046 21.1758 126.299 21.5669 126.488 22.0542C126.677 22.5414 126.771 23.1413 126.771 23.8539V24.351H120.885V23.3368H125.578C125.578 22.906 125.492 22.5215 125.32 22.1834C125.151 21.8453 124.909 21.5785 124.594 21.383C124.282 21.1874 123.914 21.0897 123.49 21.0897C123.023 21.0897 122.619 21.2057 122.277 21.4377C121.939 21.6664 121.679 21.9647 121.497 22.3326C121.314 22.7005 121.223 23.0949 121.223 23.5158V24.1919C121.223 24.7686 121.323 25.2575 121.521 25.6586C121.724 26.0563 122.004 26.3596 122.362 26.5684C122.72 26.7739 123.136 26.8766 123.61 26.8766C123.918 26.8766 124.196 26.8335 124.445 26.7473C124.697 26.6578 124.914 26.5253 125.096 26.3496C125.278 26.1706 125.419 25.9486 125.519 25.6834L126.652 26.0016C126.533 26.3861 126.332 26.7241 126.051 27.0158C125.769 27.3042 125.421 27.5295 125.007 27.6919C124.592 27.851 124.127 27.9306 123.61 27.9306ZM127.874 27.7715L130.976 23.8936L127.914 20.1351H129.306L131.851 23.3965H132.488V20.1351H133.661V23.3965H134.277L136.823 20.1351H138.215L135.172 23.8936L138.255 27.7715H136.843L134.257 24.4902H133.661V27.7715H132.488V24.4902H131.891L129.286 27.7715H127.874ZM139.116 29.959V26.6777H139.752C139.908 26.5153 140.042 26.3397 140.155 26.1507C140.268 25.9618 140.365 25.7381 140.448 25.4796C140.535 25.2177 140.607 24.8996 140.667 24.525C140.727 24.1472 140.78 23.6915 140.826 23.1578L141.085 20.1351H145.937V26.6777H147.11V29.959H145.937V27.7715H140.289V29.959H139.116ZM141.085 26.6777H144.764V21.2289H142.178L141.98 23.1578C141.897 23.9566 141.794 24.6543 141.671 25.2509C141.549 25.8475 141.353 26.3231 141.085 26.6777ZM149.423 30.6351C149.224 30.6351 149.047 30.6185 148.891 30.5854C148.736 30.5556 148.628 30.5257 148.568 30.4959L148.866 29.4618C149.152 29.5347 149.403 29.5613 149.622 29.5414C149.841 29.5215 150.035 29.4237 150.204 29.248C150.376 29.0757 150.534 28.7956 150.676 28.4078L150.895 27.8113L148.071 20.1351H149.344L151.452 26.2203H151.531L153.639 20.1351H154.912L151.67 28.8851C151.525 29.2795 151.344 29.606 151.129 29.8645C150.913 30.1264 150.663 30.3203 150.378 30.4462C150.096 30.5721 149.778 30.6351 149.423 30.6351ZM161.571 23.4164V24.5101H157.355V23.4164H161.571ZM157.634 20.1351V27.7715H156.461V20.1351H157.634ZM162.466 20.1351V27.7715H161.293V20.1351H162.466ZM166.856 27.9505C166.372 27.9505 165.933 27.8593 165.539 27.677C165.144 27.4914 164.831 27.2246 164.599 26.8766C164.367 26.5253 164.251 26.101 164.251 25.6039C164.251 25.1664 164.337 24.8117 164.51 24.54C164.682 24.2649 164.912 24.0494 165.201 23.8936C165.489 23.7379 165.807 23.6219 166.155 23.5456C166.507 23.4661 166.859 23.4031 167.214 23.3567C167.678 23.2971 168.054 23.2523 168.343 23.2225C168.634 23.1893 168.846 23.1346 168.979 23.0584C169.115 22.9822 169.183 22.8496 169.183 22.6607V22.6209C169.183 22.1304 169.049 21.7492 168.78 21.4775C168.515 21.2057 168.112 21.0698 167.572 21.0698C167.012 21.0698 166.573 21.1924 166.255 21.4377C165.936 21.6829 165.713 21.9448 165.583 22.2232L164.47 21.8255C164.669 21.3614 164.934 21.0002 165.265 20.7417C165.6 20.4798 165.965 20.2975 166.359 20.1948C166.757 20.0887 167.148 20.0357 167.532 20.0357C167.778 20.0357 168.059 20.0655 168.377 20.1252C168.699 20.1815 169.009 20.2992 169.307 20.4782C169.609 20.6571 169.859 20.9273 170.058 21.2885C170.257 21.6498 170.356 22.1337 170.356 22.7402V27.7715H169.183V26.7374H169.123C169.044 26.9031 168.911 27.0804 168.725 27.2694C168.54 27.4583 168.293 27.619 167.985 27.7516C167.676 27.8842 167.3 27.9505 166.856 27.9505ZM167.035 26.8965C167.499 26.8965 167.89 26.8053 168.208 26.623C168.53 26.4408 168.772 26.2054 168.934 25.9171C169.1 25.6287 169.183 25.3255 169.183 25.0073V23.9334C169.133 23.9931 169.024 24.0478 168.855 24.0975C168.689 24.1439 168.497 24.1853 168.278 24.2218C168.063 24.2549 167.852 24.2847 167.647 24.3113C167.444 24.3345 167.28 24.3543 167.154 24.3709C166.85 24.4107 166.565 24.4753 166.299 24.5648C166.038 24.651 165.825 24.7819 165.663 24.9576C165.504 25.1299 165.424 25.3652 165.424 25.6635C165.424 26.0712 165.575 26.3794 165.877 26.5882C166.182 26.7937 166.568 26.8965 167.035 26.8965ZM172.498 30.6351V20.1351H173.631V21.3482H173.77C173.857 21.2156 173.976 21.0466 174.128 20.8411C174.284 20.6323 174.506 20.4467 174.795 20.2843C175.086 20.1185 175.481 20.0357 175.978 20.0357C176.621 20.0357 177.188 20.1964 177.678 20.5179C178.169 20.8394 178.551 21.2952 178.827 21.8851C179.102 22.4751 179.239 23.1711 179.239 23.9732C179.239 24.7819 179.102 25.4829 178.827 26.0762C178.551 26.6661 178.17 27.1235 177.683 27.4483C177.196 27.7698 176.634 27.9306 175.998 27.9306C175.507 27.9306 175.114 27.8494 174.819 27.687C174.524 27.5212 174.297 27.334 174.138 27.1252C173.979 26.9131 173.857 26.7374 173.77 26.5982H173.671V30.6351H172.498ZM173.651 23.9533C173.651 24.53 173.736 25.0388 173.905 25.4796C174.074 25.9171 174.321 26.2601 174.645 26.5087C174.97 26.754 175.368 26.8766 175.839 26.8766C176.329 26.8766 176.738 26.7473 177.067 26.4888C177.398 26.227 177.647 25.8757 177.812 25.4348C177.981 24.9907 178.066 24.4969 178.066 23.9533C178.066 23.4164 177.983 22.9325 177.817 22.5016C177.655 22.0674 177.408 21.7244 177.077 21.4725C176.748 21.2173 176.336 21.0897 175.839 21.0897C175.361 21.0897 174.96 21.2106 174.635 21.4526C174.311 21.6912 174.065 22.026 173.9 22.4569C173.734 22.8844 173.651 23.3832 173.651 23.9533ZM184.131 27.9306C183.442 27.9306 182.837 27.7665 182.317 27.4384C181.8 27.1103 181.395 26.6512 181.104 26.0613C180.815 25.4713 180.671 24.7819 180.671 23.9931C180.671 23.1976 180.815 22.5033 181.104 21.91C181.395 21.3167 181.8 20.856 182.317 20.5279C182.837 20.1998 183.442 20.0357 184.131 20.0357C184.821 20.0357 185.424 20.1998 185.941 20.5279C186.461 20.856 186.866 21.3167 187.154 21.91C187.446 22.5033 187.591 23.1976 187.591 23.9931C187.591 24.7819 187.446 25.4713 187.154 26.0613C186.866 26.6512 186.461 27.1103 185.941 27.4384C185.424 27.7665 184.821 27.9306 184.131 27.9306ZM184.131 26.8766C184.655 26.8766 185.086 26.7424 185.424 26.4739C185.762 26.2054 186.012 25.8525 186.175 25.415C186.337 24.9775 186.418 24.5035 186.418 23.9931C186.418 23.4827 186.337 23.007 186.175 22.5662C186.012 22.1254 185.762 21.7691 185.424 21.4973C185.086 21.2256 184.655 21.0897 184.131 21.0897C183.608 21.0897 183.177 21.2256 182.839 21.4973C182.501 21.7691 182.25 22.1254 182.088 22.5662C181.925 23.007 181.844 23.4827 181.844 23.9931C181.844 24.5035 181.925 24.9775 182.088 25.415C182.25 25.8525 182.501 26.2054 182.839 26.4739C183.177 26.7424 183.608 26.8766 184.131 26.8766ZM188.567 29.959V26.6777H189.203C189.359 26.5153 189.493 26.3397 189.606 26.1507C189.719 25.9618 189.817 25.7381 189.9 25.4796C189.986 25.2177 190.059 24.8996 190.118 24.525C190.178 24.1472 190.231 23.6915 190.277 23.1578L190.536 20.1351H195.388V26.6777H196.561V29.959H195.388V27.7715H189.74V29.959H188.567ZM190.536 26.6777H194.215V21.2289H191.63L191.431 23.1578C191.348 23.9566 191.245 24.6543 191.123 25.2509C191 25.8475 190.804 26.3231 190.536 26.6777ZM203.23 23.4164V24.5101H199.014V23.4164H203.23ZM199.292 20.1351V27.7715H198.119V20.1351H199.292ZM204.124 20.1351V27.7715H202.951V20.1351H204.124ZM207.281 22.8993H209.469C210.364 22.8993 211.048 23.1264 211.522 23.5804C211.996 24.0345 212.233 24.6096 212.233 25.3056C212.233 25.763 212.127 26.1789 211.915 26.5534C211.703 26.9247 211.391 27.2213 210.98 27.4434C210.569 27.6621 210.066 27.7715 209.469 27.7715H206.267V20.1351H207.441V26.6777H209.469C209.933 26.6777 210.314 26.5551 210.612 26.3098C210.911 26.0646 211.06 25.7497 211.06 25.3652C211.06 24.9609 210.911 24.6311 210.612 24.3759C210.314 24.1207 209.933 23.9931 209.469 23.9931H207.281V22.8993ZM213.446 27.7715V20.1351H214.619V27.7715H213.446ZM217.941 26.0414L221.619 20.1351H222.972V27.7715H221.798V21.8652L218.139 27.7715H216.767V20.1351H217.941V26.0414ZM220.844 17.5897H221.938C221.938 18.1266 221.752 18.5658 221.381 18.9071C221.01 19.2485 220.506 19.4192 219.869 19.4192C219.243 19.4192 218.744 19.2485 218.373 18.9071C218.005 18.5658 217.821 18.1266 217.821 17.5897H218.915C218.915 17.8482 218.986 18.0752 219.129 18.2708C219.275 18.4663 219.521 18.5641 219.869 18.5641C220.218 18.5641 220.466 18.4663 220.615 18.2708C220.768 18.0752 220.844 17.8482 220.844 17.5897ZM237.868 26.5982L237.729 30.1777H236.456V27.7715H235.74V26.5982H237.868ZM229.217 27.7715V17.5897H230.391V26.638H235.641V17.5897H236.814V27.7715H229.217ZM242.774 27.9306C242.038 27.9306 241.403 27.7682 240.869 27.4434C240.339 27.1152 239.93 26.6578 239.642 26.0712C239.356 25.4812 239.214 24.7952 239.214 24.013C239.214 23.2308 239.356 22.5414 239.642 21.9448C239.93 21.3449 240.331 20.8775 240.845 20.5428C241.362 20.2047 241.965 20.0357 242.654 20.0357C243.052 20.0357 243.445 20.102 243.833 20.2346C244.22 20.3671 244.573 20.5826 244.892 20.8809C245.21 21.1758 245.463 21.5669 245.652 22.0542C245.841 22.5414 245.936 23.1413 245.936 23.8539V24.351H240.049V23.3368H244.742C244.742 22.906 244.656 22.5215 244.484 22.1834C244.315 21.8453 244.073 21.5785 243.758 21.383C243.446 21.1874 243.079 21.0897 242.654 21.0897C242.187 21.0897 241.783 21.2057 241.441 21.4377C241.103 21.6664 240.843 21.9647 240.661 22.3326C240.478 22.7005 240.387 23.0949 240.387 23.5158V24.1919C240.387 24.7686 240.487 25.2575 240.686 25.6586C240.888 26.0563 241.168 26.3596 241.526 26.5684C241.884 26.7739 242.3 26.8766 242.774 26.8766C243.082 26.8766 243.36 26.8335 243.609 26.7473C243.861 26.6578 244.078 26.5253 244.26 26.3496C244.442 26.1706 244.583 25.9486 244.683 25.6834L245.816 26.0016C245.697 26.3861 245.496 26.7241 245.215 27.0158C244.933 27.3042 244.585 27.5295 244.171 27.6919C243.756 27.851 243.291 27.9306 242.774 27.9306ZM252.831 23.4164V24.5101H248.615V23.4164H252.831ZM248.894 20.1351V27.7715H247.72V20.1351H248.894ZM253.726 20.1351V27.7715H252.553V20.1351H253.726ZM254.83 21.2289V20.1351H261.034V21.2289H258.529V27.7715H257.355V21.2289H254.83ZM262.746 30.6351V20.1351H263.879V21.3482H264.018C264.105 21.2156 264.224 21.0466 264.376 20.8411C264.532 20.6323 264.754 20.4467 265.043 20.2843C265.334 20.1185 265.729 20.0357 266.226 20.0357C266.869 20.0357 267.436 20.1964 267.926 20.5179C268.417 20.8394 268.799 21.2952 269.075 21.8851C269.35 22.4751 269.487 23.1711 269.487 23.9732C269.487 24.7819 269.35 25.4829 269.075 26.0762C268.799 26.6661 268.418 27.1235 267.931 27.4483C267.444 27.7698 266.882 27.9306 266.246 27.9306C265.755 27.9306 265.362 27.8494 265.067 27.687C264.772 27.5212 264.545 27.334 264.386 27.1252C264.227 26.9131 264.105 26.7374 264.018 26.5982H263.919V30.6351H262.746ZM263.899 23.9533C263.899 24.53 263.984 25.0388 264.153 25.4796C264.322 25.9171 264.569 26.2601 264.893 26.5087C265.218 26.754 265.616 26.8766 266.087 26.8766C266.577 26.8766 266.987 26.7473 267.315 26.4888C267.646 26.227 267.895 25.8757 268.06 25.4348C268.229 24.9907 268.314 24.4969 268.314 23.9533C268.314 23.4164 268.231 22.9325 268.065 22.5016C267.903 22.0674 267.656 21.7244 267.325 21.4725C266.996 21.2173 266.584 21.0897 266.087 21.0897C265.609 21.0897 265.208 21.2106 264.884 21.4526C264.559 21.6912 264.313 22.026 264.148 22.4569C263.982 22.8844 263.899 23.3832 263.899 23.9533ZM112.666 37.1351V38.2289H109.126V44.7715H107.953V37.1351H112.666ZM113.06 44.7715V43.6777H113.338C113.567 43.6777 113.758 43.633 113.91 43.5435C114.062 43.4507 114.185 43.29 114.278 43.0613C114.374 42.8292 114.447 42.5078 114.497 42.0968C114.55 41.6825 114.588 41.1555 114.611 40.5158L114.75 37.1351H119.841V44.7715H118.668V38.2289H115.864L115.744 40.9533C115.718 41.5797 115.662 42.1316 115.575 42.6088C115.493 43.0828 115.365 43.4805 115.193 43.802C115.024 44.1235 114.798 44.3655 114.517 44.5279C114.235 44.6903 113.882 44.7715 113.458 44.7715H113.06ZM125.096 44.9306C124.407 44.9306 123.802 44.7665 123.281 44.4384C122.764 44.1103 122.36 43.6512 122.068 43.0613C121.78 42.4713 121.636 41.7819 121.636 40.9931C121.636 40.1976 121.78 39.5033 122.068 38.91C122.36 38.3167 122.764 37.856 123.281 37.5279C123.802 37.1998 124.407 37.0357 125.096 37.0357C125.785 37.0357 126.389 37.1998 126.906 37.5279C127.426 37.856 127.83 38.3167 128.119 38.91C128.41 39.5033 128.556 40.1976 128.556 40.9931C128.556 41.7819 128.41 42.4713 128.119 43.0613C127.83 43.6512 127.426 44.1103 126.906 44.4384C126.389 44.7665 125.785 44.9306 125.096 44.9306ZM125.096 43.8766C125.62 43.8766 126.051 43.7424 126.389 43.4739C126.727 43.2054 126.977 42.8525 127.139 42.415C127.302 41.9775 127.383 41.5035 127.383 40.9931C127.383 40.4827 127.302 40.007 127.139 39.5662C126.977 39.1254 126.727 38.7691 126.389 38.4973C126.051 38.2256 125.62 38.0897 125.096 38.0897C124.572 38.0897 124.142 38.2256 123.803 38.4973C123.465 38.7691 123.215 39.1254 123.053 39.5662C122.89 40.007 122.809 40.4827 122.809 40.9931C122.809 41.5035 122.89 41.9775 123.053 42.415C123.215 42.8525 123.465 43.2054 123.803 43.4739C124.142 43.7424 124.572 43.8766 125.096 43.8766ZM136.015 34.2715L136.612 34.9874C136.379 35.2128 136.111 35.3702 135.806 35.4597C135.501 35.5492 135.156 35.6039 134.772 35.6238C134.388 35.6436 133.96 35.6635 133.489 35.6834C132.959 35.7033 132.52 35.8326 132.172 36.0712C131.824 36.3098 131.555 36.6545 131.366 37.1053C131.178 37.556 131.057 38.1096 131.004 38.7658H131.103C131.362 38.2885 131.719 37.9372 132.177 37.7118C132.634 37.4864 133.125 37.3738 133.648 37.3738C134.245 37.3738 134.782 37.513 135.259 37.7914C135.737 38.0698 136.114 38.4824 136.393 39.0293C136.671 39.5762 136.81 40.2507 136.81 41.0527C136.81 41.8515 136.668 42.5409 136.383 43.1209C136.101 43.7009 135.705 44.1484 135.195 44.4632C134.688 44.7748 134.093 44.9306 133.41 44.9306C132.727 44.9306 132.129 44.7698 131.615 44.4483C131.101 44.1235 130.702 43.6429 130.417 43.0066C130.132 42.3669 129.989 41.5764 129.989 40.6351V39.8198C129.989 38.1195 130.278 36.8302 130.854 35.9519C131.434 35.0736 132.306 34.6195 133.469 34.5897C133.88 34.5764 134.247 34.5731 134.568 34.5797C134.89 34.5864 135.17 34.5714 135.408 34.535C135.647 34.4985 135.849 34.4107 136.015 34.2715ZM133.41 43.8766C133.871 43.8766 134.267 43.7606 134.598 43.5286C134.933 43.2966 135.19 42.9701 135.369 42.5492C135.548 42.1249 135.637 41.6261 135.637 41.0527C135.637 40.4959 135.546 40.022 135.364 39.6309C135.185 39.2398 134.928 38.9415 134.593 38.736C134.258 38.5305 133.857 38.4277 133.39 38.4277C133.049 38.4277 132.742 38.4857 132.47 38.6017C132.198 38.7177 131.966 38.8884 131.774 39.1138C131.582 39.3392 131.433 39.6143 131.327 39.9391C131.224 40.2639 131.169 40.6351 131.163 41.0527C131.163 41.9078 131.363 42.5923 131.764 43.106C132.165 43.6197 132.714 43.8766 133.41 43.8766ZM140.852 44.9505C140.368 44.9505 139.929 44.8593 139.535 44.677C139.14 44.4914 138.827 44.2246 138.595 43.8766C138.363 43.5253 138.247 43.101 138.247 42.6039C138.247 42.1664 138.333 41.8117 138.506 41.54C138.678 41.2649 138.908 41.0494 139.197 40.8936C139.485 40.7379 139.803 40.6219 140.151 40.5456C140.503 40.4661 140.856 40.4031 141.21 40.3567C141.674 40.2971 142.05 40.2523 142.339 40.2225C142.63 40.1893 142.843 40.1346 142.975 40.0584C143.111 39.9822 143.179 39.8496 143.179 39.6607V39.6209C143.179 39.1304 143.045 38.7492 142.776 38.4775C142.511 38.2057 142.108 38.0698 141.568 38.0698C141.008 38.0698 140.569 38.1924 140.251 38.4377C139.933 38.6829 139.709 38.9448 139.58 39.2232L138.466 38.8255C138.665 38.3614 138.93 38.0002 139.261 37.7417C139.596 37.4798 139.961 37.2975 140.355 37.1948C140.753 37.0887 141.144 37.0357 141.528 37.0357C141.774 37.0357 142.055 37.0655 142.374 37.1252C142.695 37.1815 143.005 37.2992 143.303 37.4782C143.605 37.6571 143.855 37.9273 144.054 38.2885C144.253 38.6498 144.352 39.1337 144.352 39.7402V44.7715H143.179V43.7374H143.119C143.04 43.9031 142.907 44.0804 142.722 44.2694C142.536 44.4583 142.289 44.619 141.981 44.7516C141.673 44.8842 141.296 44.9505 140.852 44.9505ZM141.031 43.8965C141.495 43.8965 141.886 43.8053 142.205 43.623C142.526 43.4408 142.768 43.2054 142.93 42.9171C143.096 42.6287 143.179 42.3255 143.179 42.0073V40.9334C143.129 40.9931 143.02 41.0478 142.851 41.0975C142.685 41.1439 142.493 41.1853 142.274 41.2218C142.059 41.2549 141.848 41.2847 141.643 41.3113C141.441 41.3345 141.277 41.3543 141.151 41.3709C140.846 41.4107 140.561 41.4753 140.295 41.5648C140.034 41.651 139.821 41.7819 139.659 41.9576C139.5 42.1299 139.42 42.3652 139.42 42.6635C139.42 43.0712 139.571 43.3794 139.873 43.5882C140.178 43.7937 140.564 43.8965 141.031 43.8965ZM145.818 44.7715V43.6777H146.096C146.325 43.6777 146.515 43.633 146.668 43.5435C146.82 43.4507 146.943 43.29 147.036 43.0613C147.132 42.8292 147.205 42.5078 147.254 42.0968C147.307 41.6825 147.346 41.1555 147.369 40.5158L147.508 37.1351H152.599V44.7715H151.426V38.2289H148.622L148.502 40.9533C148.476 41.5797 148.419 42.1316 148.333 42.6088C148.25 43.0828 148.123 43.4805 147.95 43.802C147.781 44.1235 147.556 44.3655 147.274 44.5279C146.993 44.6903 146.64 44.7715 146.215 44.7715H145.818ZM155.766 39.8993H157.953C158.848 39.8993 159.533 40.1264 160.007 40.5804C160.481 41.0345 160.718 41.6096 160.718 42.3056C160.718 42.763 160.611 43.1789 160.399 43.5534C160.187 43.9247 159.876 44.2213 159.465 44.4434C159.054 44.6621 158.55 44.7715 157.953 44.7715H154.752V37.1351H155.925V43.6777H157.953C158.417 43.6777 158.798 43.5551 159.097 43.3098C159.395 43.0646 159.544 42.7497 159.544 42.3652C159.544 41.9609 159.395 41.6311 159.097 41.3759C158.798 41.1207 158.417 40.9931 157.953 40.9931H155.766V39.8993ZM167.614 40.4164V41.5101H163.398V40.4164H167.614ZM163.677 37.1351V44.7715H162.504V37.1351H163.677ZM168.509 37.1351V44.7715H167.336V37.1351H168.509ZM173.754 44.9306C173.065 44.9306 172.46 44.7665 171.94 44.4384C171.423 44.1103 171.018 43.6512 170.727 43.0613C170.438 42.4713 170.294 41.7819 170.294 40.9931C170.294 40.1976 170.438 39.5033 170.727 38.91C171.018 38.3167 171.423 37.856 171.94 37.5279C172.46 37.1998 173.065 37.0357 173.754 37.0357C174.444 37.0357 175.047 37.1998 175.564 37.5279C176.084 37.856 176.489 38.3167 176.777 38.91C177.069 39.5033 177.214 40.1976 177.214 40.9931C177.214 41.7819 177.069 42.4713 176.777 43.0613C176.489 43.6512 176.084 44.1103 175.564 44.4384C175.047 44.7665 174.444 44.9306 173.754 44.9306ZM173.754 43.8766C174.278 43.8766 174.709 43.7424 175.047 43.4739C175.385 43.2054 175.635 42.8525 175.798 42.415C175.96 41.9775 176.041 41.5035 176.041 40.9931C176.041 40.4827 175.96 40.007 175.798 39.5662C175.635 39.1254 175.385 38.7691 175.047 38.4973C174.709 38.2256 174.278 38.0897 173.754 38.0897C173.231 38.0897 172.8 38.2256 172.462 38.4973C172.124 38.7691 171.873 39.1254 171.711 39.5662C171.549 40.007 171.467 40.4827 171.467 40.9931C171.467 41.5035 171.549 41.9775 171.711 42.415C171.873 42.8525 172.124 43.2054 172.462 43.4739C172.8 43.7424 173.231 43.8766 173.754 43.8766ZM183.719 37.1351V38.2289H180.179V44.7715H179.006V37.1351H183.719ZM188.137 44.9306C187.448 44.9306 186.843 44.7665 186.322 44.4384C185.805 44.1103 185.401 43.6512 185.109 43.0613C184.821 42.4713 184.677 41.7819 184.677 40.9931C184.677 40.1976 184.821 39.5033 185.109 38.91C185.401 38.3167 185.805 37.856 186.322 37.5279C186.843 37.1998 187.448 37.0357 188.137 37.0357C188.826 37.0357 189.43 37.1998 189.947 37.5279C190.467 37.856 190.871 38.3167 191.16 38.91C191.451 39.5033 191.597 40.1976 191.597 40.9931C191.597 41.7819 191.451 42.4713 191.16 43.0613C190.871 43.6512 190.467 44.1103 189.947 44.4384C189.43 44.7665 188.826 44.9306 188.137 44.9306ZM188.137 43.8766C188.661 43.8766 189.092 43.7424 189.43 43.4739C189.768 43.2054 190.018 42.8525 190.18 42.415C190.343 41.9775 190.424 41.5035 190.424 40.9931C190.424 40.4827 190.343 40.007 190.18 39.5662C190.018 39.1254 189.768 38.7691 189.43 38.4973C189.092 38.2256 188.661 38.0897 188.137 38.0897C187.613 38.0897 187.183 38.2256 186.844 38.4973C186.506 38.7691 186.256 39.1254 186.094 39.5662C185.931 40.007 185.85 40.4827 185.85 40.9931C185.85 41.5035 185.931 41.9775 186.094 42.415C186.256 42.8525 186.506 43.2054 186.844 43.4739C187.183 43.7424 187.613 43.8766 188.137 43.8766ZM201.502 43.1806L204.167 37.1351H205.28L201.979 44.7715H201.025L197.783 37.1351H198.877L201.502 43.1806ZM198.499 37.1351V44.7715H197.326V37.1351H198.499ZM204.505 44.7715V37.1351H205.678V44.7715H204.505ZM210.928 44.9306C210.239 44.9306 209.634 44.7665 209.113 44.4384C208.596 44.1103 208.192 43.6512 207.9 43.0613C207.612 42.4713 207.468 41.7819 207.468 40.9931C207.468 40.1976 207.612 39.5033 207.9 38.91C208.192 38.3167 208.596 37.856 209.113 37.5279C209.634 37.1998 210.239 37.0357 210.928 37.0357C211.617 37.0357 212.221 37.1998 212.738 37.5279C213.258 37.856 213.662 38.3167 213.951 38.91C214.242 39.5033 214.388 40.1976 214.388 40.9931C214.388 41.7819 214.242 42.4713 213.951 43.0613C213.662 43.6512 213.258 44.1103 212.738 44.4384C212.221 44.7665 211.617 44.9306 210.928 44.9306ZM210.928 43.8766C211.452 43.8766 211.883 43.7424 212.221 43.4739C212.559 43.2054 212.809 42.8525 212.971 42.415C213.134 41.9775 213.215 41.5035 213.215 40.9931C213.215 40.4827 213.134 40.007 212.971 39.5662C212.809 39.1254 212.559 38.7691 212.221 38.4973C211.883 38.2256 211.452 38.0897 210.928 38.0897C210.404 38.0897 209.974 38.2256 209.635 38.4973C209.297 38.7691 209.047 39.1254 208.885 39.5662C208.722 40.007 208.641 40.4827 208.641 40.9931C208.641 41.5035 208.722 41.9775 208.885 42.415C209.047 42.8525 209.297 43.2054 209.635 43.4739C209.974 43.7424 210.404 43.8766 210.928 43.8766ZM221.29 40.4164V41.5101H217.074V40.4164H221.29ZM217.353 37.1351V44.7715H216.179V37.1351H217.353ZM222.185 37.1351V44.7715H221.012V37.1351H222.185ZM225.501 43.0414L229.18 37.1351H230.532V44.7715H229.359V38.8652L225.7 44.7715H224.328V37.1351H225.501V43.0414ZM231.642 38.2289V37.1351H237.847V38.2289H235.341V44.7715H234.168V38.2289H231.642ZM242.264 44.9306C241.575 44.9306 240.97 44.7665 240.449 44.4384C239.932 44.1103 239.528 43.6512 239.236 43.0613C238.948 42.4713 238.804 41.7819 238.804 40.9931C238.804 40.1976 238.948 39.5033 239.236 38.91C239.528 38.3167 239.932 37.856 240.449 37.5279C240.97 37.1998 241.575 37.0357 242.264 37.0357C242.953 37.0357 243.557 37.1998 244.074 37.5279C244.594 37.856 244.998 38.3167 245.287 38.91C245.578 39.5033 245.724 40.1976 245.724 40.9931C245.724 41.7819 245.578 42.4713 245.287 43.0613C244.998 43.6512 244.594 44.1103 244.074 44.4384C243.557 44.7665 242.953 44.9306 242.264 44.9306ZM242.264 43.8766C242.788 43.8766 243.219 43.7424 243.557 43.4739C243.895 43.2054 244.145 42.8525 244.307 42.415C244.47 41.9775 244.551 41.5035 244.551 40.9931C244.551 40.4827 244.47 40.007 244.307 39.5662C244.145 39.1254 243.895 38.7691 243.557 38.4973C243.219 38.2256 242.788 38.0897 242.264 38.0897C241.74 38.0897 241.309 38.2256 240.971 38.4973C240.633 38.7691 240.383 39.1254 240.221 39.5662C240.058 40.007 239.977 40.4827 239.977 40.9931C239.977 41.5035 240.058 41.9775 240.221 42.415C240.383 42.8525 240.633 43.2054 240.971 43.4739C241.309 43.7424 241.74 43.8766 242.264 43.8766ZM247.515 47.6351V37.1351H248.649V38.3482H248.788C248.874 38.2156 248.993 38.0466 249.146 37.8411C249.302 37.6323 249.524 37.4467 249.812 37.2843C250.104 37.1185 250.498 37.0357 250.995 37.0357C251.638 37.0357 252.205 37.1964 252.696 37.5179C253.186 37.8394 253.569 38.2952 253.844 38.8851C254.119 39.4751 254.257 40.1711 254.257 40.9732C254.257 41.7819 254.119 42.4829 253.844 43.0762C253.569 43.6661 253.188 44.1235 252.701 44.4483C252.213 44.7698 251.652 44.9306 251.015 44.9306C250.525 44.9306 250.132 44.8494 249.837 44.687C249.542 44.5212 249.315 44.334 249.156 44.1252C248.997 43.9131 248.874 43.7374 248.788 43.5982H248.689V47.6351H247.515ZM248.669 40.9533C248.669 41.53 248.753 42.0388 248.922 42.4796C249.091 42.9171 249.338 43.2601 249.663 43.5087C249.988 43.754 250.386 43.8766 250.856 43.8766C251.347 43.8766 251.756 43.7473 252.084 43.4888C252.416 43.227 252.664 42.8757 252.83 42.4348C252.999 41.9907 253.083 41.4969 253.083 40.9533C253.083 40.4164 253.001 39.9325 252.835 39.5016C252.672 39.0674 252.426 38.7244 252.094 38.4725C251.766 38.2173 251.353 38.0897 250.856 38.0897C250.379 38.0897 249.978 38.2106 249.653 38.4526C249.328 38.6912 249.083 39.026 248.917 39.4569C248.752 39.8844 248.669 40.3832 248.669 40.9533ZM257.22 43.0414L260.899 37.1351H262.251V44.7715H261.078V38.8652L257.419 44.7715H256.047V37.1351H257.22V43.0414ZM269.511 40.4164V41.5101H265.295V40.4164H269.511ZM265.573 37.1351V44.7715H264.4V37.1351H265.573ZM270.406 37.1351V44.7715H269.232V37.1351H270.406ZM277.262 37.1351V38.2289H273.722V44.7715H272.548V37.1351H277.262ZM280.825 44.9505C280.341 44.9505 279.902 44.8593 279.507 44.677C279.113 44.4914 278.8 44.2246 278.568 43.8766C278.336 43.5253 278.22 43.101 278.22 42.6039C278.22 42.1664 278.306 41.8117 278.478 41.54C278.651 41.2649 278.881 41.0494 279.169 40.8936C279.458 40.7379 279.776 40.6219 280.124 40.5456C280.475 40.4661 280.828 40.4031 281.183 40.3567C281.647 40.2971 282.023 40.2523 282.311 40.2225C282.603 40.1893 282.815 40.1346 282.948 40.0584C283.084 39.9822 283.152 39.8496 283.152 39.6607V39.6209C283.152 39.1304 283.017 38.7492 282.749 38.4775C282.484 38.2057 282.081 38.0698 281.541 38.0698C280.981 38.0698 280.542 38.1924 280.223 38.4377C279.905 38.6829 279.681 38.9448 279.552 39.2232L278.439 38.8255C278.637 38.3614 278.903 38.0002 279.234 37.7417C279.569 37.4798 279.933 37.2975 280.328 37.1948C280.725 37.0887 281.117 37.0357 281.501 37.0357C281.746 37.0357 282.028 37.0655 282.346 37.1252C282.668 37.1815 282.978 37.2992 283.276 37.4782C283.578 37.6571 283.828 37.9273 284.027 38.2885C284.225 38.6498 284.325 39.1337 284.325 39.7402V44.7715H283.152V43.7374H283.092C283.012 43.9031 282.88 44.0804 282.694 44.2694C282.509 44.4583 282.262 44.619 281.953 44.7516C281.645 44.8842 281.269 44.9505 280.825 44.9505ZM281.004 43.8965C281.468 43.8965 281.859 43.8053 282.177 43.623C282.499 43.4408 282.741 43.2054 282.903 42.9171C283.069 42.6287 283.152 42.3255 283.152 42.0073V40.9334C283.102 40.9931 282.993 41.0478 282.824 41.0975C282.658 41.1439 282.466 41.1853 282.247 41.2218C282.031 41.2549 281.821 41.2847 281.615 41.3113C281.413 41.3345 281.249 41.3543 281.123 41.3709C280.818 41.4107 280.533 41.4753 280.268 41.5648C280.006 41.651 279.794 41.7819 279.632 41.9576C279.473 42.1299 279.393 42.3652 279.393 42.6635C279.393 43.0712 279.544 43.3794 279.846 43.5882C280.15 43.7937 280.537 43.8965 281.004 43.8965ZM111.055 61.9306C110.339 61.9306 109.723 61.7615 109.206 61.4235C108.689 61.0854 108.291 60.6197 108.012 60.0265C107.734 59.4332 107.595 58.7554 107.595 57.9931C107.595 57.2175 107.737 56.5331 108.022 55.9398C108.311 55.3432 108.712 54.8775 109.225 54.5428C109.743 54.2047 110.346 54.0357 111.035 54.0357C111.572 54.0357 112.056 54.1351 112.487 54.334C112.918 54.5328 113.271 54.8113 113.546 55.1692C113.821 55.5272 113.992 55.9448 114.058 56.4221H112.885C112.795 56.074 112.596 55.7658 112.288 55.4973C111.983 55.2256 111.572 55.0897 111.055 55.0897C110.598 55.0897 110.197 55.209 109.852 55.4476C109.511 55.6829 109.244 56.016 109.051 56.4469C108.863 56.8745 108.768 57.3766 108.768 57.9533C108.768 58.5433 108.861 59.057 109.047 59.4945C109.235 59.932 109.501 60.2717 109.842 60.5137C110.187 60.7556 110.591 60.8766 111.055 60.8766C111.36 60.8766 111.637 60.8236 111.885 60.7175C112.134 60.6114 112.344 60.459 112.517 60.2601C112.689 60.0613 112.812 59.8226 112.885 59.5442H114.058C113.992 59.995 113.828 60.401 113.566 60.7623C113.307 61.1202 112.964 61.4052 112.537 61.6174C112.112 61.8262 111.618 61.9306 111.055 61.9306ZM118.975 61.9306C118.239 61.9306 117.604 61.7682 117.071 61.4434C116.54 61.1152 116.131 60.6578 115.843 60.0712C115.558 59.4812 115.415 58.7952 115.415 58.013C115.415 57.2308 115.558 56.5414 115.843 55.9448C116.131 55.3449 116.532 54.8775 117.046 54.5428C117.563 54.2047 118.166 54.0357 118.855 54.0357C119.253 54.0357 119.646 54.102 120.034 54.2346C120.422 54.3671 120.775 54.5826 121.093 54.8809C121.411 55.1758 121.664 55.5669 121.853 56.0542C122.042 56.5414 122.137 57.1413 122.137 57.8539V58.351H116.25V57.3368H120.944C120.944 56.906 120.857 56.5215 120.685 56.1834C120.516 55.8453 120.274 55.5785 119.959 55.383C119.648 55.1874 119.28 55.0897 118.855 55.0897C118.388 55.0897 117.984 55.2057 117.642 55.4377C117.304 55.6664 117.044 55.9647 116.862 56.3326C116.68 56.7005 116.588 57.0949 116.588 57.5158V58.1919C116.588 58.7686 116.688 59.2575 116.887 59.6586C117.089 60.0563 117.369 60.3596 117.727 60.5684C118.085 60.7739 118.501 60.8766 118.975 60.8766C119.283 60.8766 119.561 60.8335 119.81 60.7473C120.062 60.6578 120.279 60.5253 120.461 60.3496C120.644 60.1706 120.784 59.9486 120.884 59.6834L122.017 60.0016C121.898 60.3861 121.698 60.7241 121.416 61.0158C121.134 61.3042 120.786 61.5295 120.372 61.6919C119.958 61.851 119.492 61.9306 118.975 61.9306ZM125.095 60.0414L128.774 54.1351H130.126V61.7715H128.953V55.8652L125.294 61.7715H123.922V54.1351H125.095V60.0414ZM127.998 51.5897H129.092C129.092 52.1266 128.906 52.5658 128.535 52.9071C128.164 53.2485 127.66 53.4192 127.024 53.4192C126.397 53.4192 125.899 53.2485 125.527 52.9071C125.159 52.5658 124.975 52.1266 124.975 51.5897H126.069C126.069 51.8482 126.141 52.0752 126.283 52.2708C126.429 52.4663 126.676 52.5641 127.024 52.5641C127.372 52.5641 127.62 52.4663 127.77 52.2708C127.922 52.0752 127.998 51.8482 127.998 51.5897ZM135.377 61.9306C134.661 61.9306 134.045 61.7615 133.528 61.4235C133.011 61.0854 132.613 60.6197 132.335 60.0265C132.056 59.4332 131.917 58.7554 131.917 57.9931C131.917 57.2175 132.06 56.5331 132.345 55.9398C132.633 55.3432 133.034 54.8775 133.548 54.5428C134.065 54.2047 134.668 54.0357 135.357 54.0357C135.894 54.0357 136.378 54.1351 136.809 54.334C137.24 54.5328 137.593 54.8113 137.868 55.1692C138.143 55.5272 138.314 55.9448 138.38 56.4221H137.207C137.117 56.074 136.919 55.7658 136.61 55.4973C136.305 55.2256 135.894 55.0897 135.377 55.0897C134.92 55.0897 134.519 55.209 134.174 55.4476C133.833 55.6829 133.566 56.016 133.374 56.4469C133.185 56.8745 133.09 57.3766 133.09 57.9533C133.09 58.5433 133.183 59.057 133.369 59.4945C133.558 59.932 133.823 60.2717 134.164 60.5137C134.509 60.7556 134.913 60.8766 135.377 60.8766C135.682 60.8766 135.959 60.8236 136.208 60.7175C136.456 60.6114 136.667 60.459 136.839 60.2601C137.011 60.0613 137.134 59.8226 137.207 59.5442H138.38C138.314 59.995 138.15 60.401 137.888 60.7623C137.629 61.1202 137.286 61.4052 136.859 61.6174C136.435 61.8262 135.941 61.9306 135.377 61.9306ZM144.271 60.1806L146.936 54.1351H148.05L144.749 61.7715H143.794L140.553 54.1351H141.646L144.271 60.1806ZM141.269 54.1351V61.7715H140.095V54.1351H141.269ZM147.274 61.7715V54.1351H148.448V61.7715H147.274ZM151.769 60.0414L155.448 54.1351H156.8V61.7715H155.627V55.8652L151.968 61.7715H150.595V54.1351H151.769V60.0414ZM164.835 54.1351V61.7715H163.662V54.1351H164.835ZM164.378 57.7743V58.8681C164.113 58.9675 163.849 59.0553 163.587 59.1316C163.326 59.2045 163.05 59.2625 162.762 59.3056C162.474 59.3453 162.157 59.3652 161.812 59.3652C160.947 59.3652 160.253 59.1316 159.729 58.6642C159.209 58.1969 158.949 57.4959 158.949 56.5613V54.1152H160.122V56.5613C160.122 56.9524 160.197 57.2739 160.346 57.5257C160.495 57.7776 160.697 57.9649 160.952 58.0875C161.208 58.2102 161.494 58.2715 161.812 58.2715C162.31 58.2715 162.759 58.2267 163.16 58.1373C163.564 58.0444 163.97 57.9235 164.378 57.7743ZM170.19 61.9306C169.454 61.9306 168.819 61.7682 168.286 61.4434C167.755 61.1152 167.346 60.6578 167.058 60.0712C166.772 59.4812 166.63 58.7952 166.63 58.013C166.63 57.2308 166.772 56.5414 167.058 55.9448C167.346 55.3449 167.747 54.8775 168.261 54.5428C168.778 54.2047 169.381 54.0357 170.07 54.0357C170.468 54.0357 170.861 54.102 171.249 54.2346C171.636 54.3671 171.989 54.5826 172.308 54.8809C172.626 55.1758 172.879 55.5669 173.068 56.0542C173.257 56.5414 173.352 57.1413 173.352 57.8539V58.351H167.465V57.3368H172.158C172.158 56.906 172.072 56.5215 171.9 56.1834C171.731 55.8453 171.489 55.5785 171.174 55.383C170.862 55.1874 170.495 55.0897 170.07 55.0897C169.603 55.0897 169.199 55.2057 168.857 55.4377C168.519 55.6664 168.259 55.9647 168.077 56.3326C167.894 56.7005 167.803 57.0949 167.803 57.5158V58.1919C167.803 58.7686 167.903 59.2575 168.102 59.6586C168.304 60.0563 168.584 60.3596 168.942 60.5684C169.3 60.7739 169.716 60.8766 170.19 60.8766C170.498 60.8766 170.776 60.8335 171.025 60.7473C171.277 60.6578 171.494 60.5253 171.676 60.3496C171.858 60.1706 171.999 59.9486 172.099 59.6834L173.232 60.0016C173.113 60.3861 172.912 60.7241 172.631 61.0158C172.349 61.3042 172.001 61.5295 171.587 61.6919C171.172 61.851 170.707 61.9306 170.19 61.9306ZM178.239 61.9306C177.523 61.9306 176.906 61.7615 176.389 61.4235C175.872 61.0854 175.474 60.6197 175.196 60.0265C174.918 59.4332 174.778 58.7554 174.778 57.9931C174.778 57.2175 174.921 56.5331 175.206 55.9398C175.494 55.3432 175.895 54.8775 176.409 54.5428C176.926 54.2047 177.529 54.0357 178.219 54.0357C178.756 54.0357 179.24 54.1351 179.67 54.334C180.101 54.5328 180.454 54.8113 180.729 55.1692C181.004 55.5272 181.175 55.9448 181.241 56.4221H180.068C179.979 56.074 179.78 55.7658 179.472 55.4973C179.167 55.2256 178.756 55.0897 178.239 55.0897C177.781 55.0897 177.38 55.209 177.036 55.4476C176.694 55.6829 176.427 56.016 176.235 56.4469C176.046 56.8745 175.952 57.3766 175.952 57.9533C175.952 58.5433 176.045 59.057 176.23 59.4945C176.419 59.932 176.684 60.2717 177.026 60.5137C177.37 60.7556 177.775 60.8766 178.239 60.8766C178.544 60.8766 178.82 60.8236 179.069 60.7175C179.317 60.6114 179.528 60.459 179.7 60.2601C179.873 60.0613 179.995 59.8226 180.068 59.5442H181.241C181.175 59.995 181.011 60.401 180.749 60.7623C180.491 61.1202 180.148 61.4052 179.72 61.6174C179.296 61.8262 178.802 61.9306 178.239 61.9306ZM182.957 61.7715V54.1351H184.13V57.4561H184.906L187.65 54.1351H189.161L186.079 57.8141L189.201 61.7715H187.69L185.184 58.5499H184.13V61.7715H182.957ZM193.264 61.9306C192.575 61.9306 191.97 61.7665 191.449 61.4384C190.932 61.1103 190.528 60.6512 190.236 60.0613C189.948 59.4713 189.804 58.7819 189.804 57.9931C189.804 57.1976 189.948 56.5033 190.236 55.91C190.528 55.3167 190.932 54.856 191.449 54.5279C191.97 54.1998 192.575 54.0357 193.264 54.0357C193.953 54.0357 194.557 54.1998 195.074 54.5279C195.594 54.856 195.998 55.3167 196.287 55.91C196.578 56.5033 196.724 57.1976 196.724 57.9931C196.724 58.7819 196.578 59.4713 196.287 60.0613C195.998 60.6512 195.594 61.1103 195.074 61.4384C194.557 61.7665 193.953 61.9306 193.264 61.9306ZM193.264 60.8766C193.788 60.8766 194.219 60.7424 194.557 60.4739C194.895 60.2054 195.145 59.8525 195.307 59.415C195.47 58.9775 195.551 58.5035 195.551 57.9931C195.551 57.4827 195.47 57.007 195.307 56.5662C195.145 56.1254 194.895 55.7691 194.557 55.4973C194.219 55.2256 193.788 55.0897 193.264 55.0897C192.74 55.0897 192.309 55.2256 191.971 55.4973C191.633 55.7691 191.383 56.1254 191.221 56.5662C191.058 57.007 190.977 57.4827 190.977 57.9931C190.977 58.5035 191.058 58.9775 191.221 59.415C191.383 59.8525 191.633 60.2054 191.971 60.4739C192.309 60.7424 192.74 60.8766 193.264 60.8766ZM203.228 54.1351V55.2289H199.689V61.7715H198.515V54.1351H203.228ZM207.647 61.9306C206.957 61.9306 206.353 61.7665 205.832 61.4384C205.315 61.1103 204.911 60.6512 204.619 60.0613C204.331 59.4713 204.187 58.7819 204.187 57.9931C204.187 57.1976 204.331 56.5033 204.619 55.91C204.911 55.3167 205.315 54.856 205.832 54.5279C206.353 54.1998 206.957 54.0357 207.647 54.0357C208.336 54.0357 208.939 54.1998 209.456 54.5279C209.977 54.856 210.381 55.3167 210.67 55.91C210.961 56.5033 211.107 57.1976 211.107 57.9931C211.107 58.7819 210.961 59.4713 210.67 60.0613C210.381 60.6512 209.977 61.1103 209.456 61.4384C208.939 61.7665 208.336 61.9306 207.647 61.9306ZM207.647 60.8766C208.171 60.8766 208.601 60.7424 208.939 60.4739C209.278 60.2054 209.528 59.8525 209.69 59.415C209.853 58.9775 209.934 58.5035 209.934 57.9931C209.934 57.4827 209.853 57.007 209.69 56.5662C209.528 56.1254 209.278 55.7691 208.939 55.4973C208.601 55.2256 208.171 55.0897 207.647 55.0897C207.123 55.0897 206.692 55.2256 206.354 55.4973C206.016 55.7691 205.766 56.1254 205.604 56.5662C205.441 57.007 205.36 57.4827 205.36 57.9931C205.36 58.5035 205.441 58.9775 205.604 59.415C205.766 59.8525 206.016 60.2054 206.354 60.4739C206.692 60.7424 207.123 60.8766 207.647 60.8766ZM216.836 64.6351V54.1351H217.969V55.3482H218.108C218.194 55.2156 218.314 55.0466 218.466 54.8411C218.622 54.6323 218.844 54.4467 219.132 54.2843C219.424 54.1185 219.819 54.0357 220.316 54.0357C220.959 54.0357 221.525 54.1964 222.016 54.5179C222.507 54.8394 222.889 55.2952 223.164 55.8851C223.44 56.4751 223.577 57.1711 223.577 57.9732C223.577 58.7819 223.44 59.4829 223.164 60.0762C222.889 60.6661 222.508 61.1235 222.021 61.4483C221.534 61.7698 220.972 61.9306 220.336 61.9306C219.845 61.9306 219.452 61.8494 219.157 61.687C218.862 61.5212 218.635 61.334 218.476 61.1252C218.317 60.9131 218.194 60.7374 218.108 60.5982H218.009V64.6351H216.836ZM217.989 57.9533C217.989 58.53 218.074 59.0388 218.243 59.4796C218.412 59.9171 218.658 60.2601 218.983 60.5087C219.308 60.754 219.706 60.8766 220.176 60.8766C220.667 60.8766 221.076 60.7473 221.404 60.4888C221.736 60.227 221.984 59.8757 222.15 59.4348C222.319 58.9907 222.404 58.4969 222.404 57.9533C222.404 57.4164 222.321 56.9325 222.155 56.5016C221.993 56.0674 221.746 55.7244 221.414 55.4725C221.086 55.2173 220.674 55.0897 220.176 55.0897C219.699 55.0897 219.298 55.2106 218.973 55.4526C218.649 55.6912 218.403 56.026 218.238 56.4569C218.072 56.8844 217.989 57.3832 217.989 57.9533ZM226.54 60.0414L230.219 54.1351H231.571V61.7715H230.398V55.8652L226.739 61.7715H225.367V54.1351H226.54V60.0414ZM236.823 61.9306C236.107 61.9306 235.49 61.7615 234.973 61.4235C234.456 61.0854 234.058 60.6197 233.78 60.0265C233.502 59.4332 233.362 58.7554 233.362 57.9931C233.362 57.2175 233.505 56.5331 233.79 55.9398C234.078 55.3432 234.479 54.8775 234.993 54.5428C235.51 54.2047 236.113 54.0357 236.803 54.0357C237.34 54.0357 237.824 54.1351 238.254 54.334C238.685 54.5328 239.038 54.8113 239.313 55.1692C239.588 55.5272 239.759 55.9448 239.825 56.4221H238.652C238.563 56.074 238.364 55.7658 238.056 55.4973C237.751 55.2256 237.34 55.0897 236.823 55.0897C236.365 55.0897 235.964 55.209 235.619 55.4476C235.278 55.6829 235.011 56.016 234.819 56.4469C234.63 56.8745 234.536 57.3766 234.536 57.9533C234.536 58.5433 234.628 59.057 234.814 59.4945C235.003 59.932 235.268 60.2717 235.61 60.5137C235.954 60.7556 236.359 60.8766 236.823 60.8766C237.128 60.8766 237.404 60.8236 237.653 60.7175C237.901 60.6114 238.112 60.459 238.284 60.2601C238.457 60.0613 238.579 59.8226 238.652 59.5442H239.825C239.759 59.995 239.595 60.401 239.333 60.7623C239.075 61.1202 238.732 61.4052 238.304 61.6174C237.88 61.8262 237.386 61.9306 236.823 61.9306ZM241.541 61.7715V54.1351H242.714V57.4561H243.49L246.234 54.1351H247.745L244.663 57.8141L247.785 61.7715H246.274L243.768 58.5499H242.714V61.7715H241.541ZM251.307 61.9505C250.823 61.9505 250.384 61.8593 249.99 61.677C249.595 61.4914 249.282 61.2246 249.05 60.8766C248.818 60.5253 248.702 60.101 248.702 59.6039C248.702 59.1664 248.788 58.8117 248.961 58.54C249.133 58.2649 249.363 58.0494 249.652 57.8936C249.94 57.7379 250.258 57.6219 250.606 57.5456C250.958 57.4661 251.311 57.4031 251.665 57.3567C252.129 57.2971 252.506 57.2523 252.794 57.2225C253.086 57.1893 253.298 57.1346 253.43 57.0584C253.566 56.9822 253.634 56.8496 253.634 56.6607V56.6209C253.634 56.1304 253.5 55.7492 253.231 55.4775C252.966 55.2057 252.564 55.0698 252.023 55.0698C251.463 55.0698 251.024 55.1924 250.706 55.4377C250.388 55.6829 250.164 55.9448 250.035 56.2232L248.921 55.8255C249.12 55.3614 249.385 55.0002 249.716 54.7417C250.051 54.4798 250.416 54.2975 250.81 54.1948C251.208 54.0887 251.599 54.0357 251.983 54.0357C252.229 54.0357 252.51 54.0655 252.829 54.1252C253.15 54.1815 253.46 54.2992 253.758 54.4782C254.06 54.6571 254.31 54.9273 254.509 55.2885C254.708 55.6498 254.807 56.1337 254.807 56.7402V61.7715H253.634V60.7374H253.574C253.495 60.9031 253.362 61.0804 253.177 61.2694C252.991 61.4583 252.744 61.619 252.436 61.7516C252.128 61.8842 251.751 61.9505 251.307 61.9505ZM251.486 60.8965C251.95 60.8965 252.341 60.8053 252.66 60.623C252.981 60.4408 253.223 60.2054 253.385 59.9171C253.551 59.6287 253.634 59.3255 253.634 59.0073V57.9334C253.584 57.9931 253.475 58.0478 253.306 58.0975C253.14 58.1439 252.948 58.1853 252.729 58.2218C252.514 58.2549 252.303 58.2847 252.098 58.3113C251.896 58.3345 251.732 58.3543 251.606 58.3709C251.301 58.4107 251.016 58.4753 250.751 58.5648C250.489 58.651 250.277 58.7819 250.114 58.9576C249.955 59.1299 249.876 59.3652 249.876 59.6635C249.876 60.0712 250.026 60.3794 250.328 60.5882C250.633 60.7937 251.019 60.8965 251.486 60.8965Z" fill="#002687"/>
<path d="M106.879 30.5556H270.203V31.5101H106.879V30.5556ZM106.879 47.5556H285.399V48.5101H106.879V47.5556ZM106.879 64.5556H255.881V65.5101H106.879V64.5556Z" fill="#002687"/>
<defs>
<radialGradient id="paint0_radial_997_3189" cx="0" cy="0" r="1" gradientUnits="userSpaceOnUse" gradientTransform="translate(29.3098 54.5679) scale(64.8157 62.7257)">
<stop offset="0.03" stop-color="#BEE0F4"/>
<stop offset="0.49" stop-color="#5FB9E0"/>
<stop offset="0.84" stop-color="#1C9ED3"/>
<stop offset="1" stop-color="#0394CE"/>
</radialGradient>
<radialGradient id="paint1_radial_997_3189" cx="0" cy="0" r="1" gradientUnits="userSpaceOnUse" gradientTransform="translate(62.8528 64.0663) scale(3.02996 2.93226)">
<stop stop-color="#A4D178"/>
<stop offset="0.14" stop-color="#93CC73"/>
<stop offset="0.41" stop-color="#68C069"/>
<stop offset="0.79" stop-color="#23AD58"/>
<stop offset="0.97" stop-color="#00A450"/>
</radialGradient>
<radialGradient id="paint2_radial_997_3189" cx="0" cy="0" r="1" gradientUnits="userSpaceOnUse" gradientTransform="translate(38.0017 28.2109) scale(4.9344 4.77529)">
<stop stop-color="#88C36B"/>
<stop offset="0.15" stop-color="#60BA63"/>
<stop offset="0.31" stop-color="#3DB25C"/>
<stop offset="0.47" stop-color="#22AB56"/>
<stop offset="0.63" stop-color="#0FA753"/>
<stop offset="0.8" stop-color="#03A450"/>
<stop offset="0.97" stop-color="#00A450"/>
</radialGradient>
<radialGradient id="paint3_radial_997_3189" cx="0" cy="0" r="1" gradientUnits="userSpaceOnUse" gradientTransform="translate(67.8442 10.7364) scale(3.7308 3.6105)">
<stop offset="0.05" stop-color="#6FB861"/>
<stop offset="0.15" stop-color="#50B25C"/>
<stop offset="0.28" stop-color="#33AD57"/>
<stop offset="0.42" stop-color="#1CA954"/>
<stop offset="0.57" stop-color="#0CA651"/>
<stop offset="0.74" stop-color="#03A450"/>
<stop offset="0.97" stop-color="#00A450"/>
</radialGradient>
<radialGradient id="paint4_radial_997_3189" cx="0" cy="0" r="1" gradientUnits="userSpaceOnUse" gradientTransform="translate(71.2762 10.7782) scale(0.20568 0.199333)">
<stop stop-color="#A4D178"/>
<stop offset="0.14" stop-color="#93CC73"/>
<stop offset="0.41" stop-color="#68C069"/>
<stop offset="0.79" stop-color="#23AD58"/>
<stop offset="0.97" stop-color="#00A450"/>
</radialGradient>
<radialGradient id="paint5_radial_997_3189" cx="0" cy="0" r="1" gradientUnits="userSpaceOnUse" gradientTransform="translate(41.3115 49.4241) scale(38.6449 37.4405)">
<stop stop-color="#A4D178"/>
<stop offset="0.14" stop-color="#93CC73"/>
<stop offset="0.41" stop-color="#68C069"/>
<stop offset="0.79" stop-color="#23AD58"/>
<stop offset="0.97" stop-color="#00A450"/>
</radialGradient>
<radialGradient id="paint6_radial_997_3189" cx="0" cy="0" r="1" gradientUnits="userSpaceOnUse" gradientTransform="translate(41.3117 49.3989) scale(38.6449 37.3988)">
<stop stop-color="#A4D178"/>
<stop offset="0.14" stop-color="#93CC73"/>
<stop offset="0.41" stop-color="#68C069"/>
<stop offset="0.79" stop-color="#23AD58"/>
<stop offset="0.97" stop-color="#00A450"/>
</radialGradient>
<radialGradient id="paint7_radial_997_3189" cx="0" cy="0" r="1" gradientUnits="userSpaceOnUse" gradientTransform="translate(83.3639 39.1449) scale(1.71971 1.66479)">
<stop stop-color="#A4D178"/>
<stop offset="0.14" stop-color="#93CC73"/>
<stop offset="0.41" stop-color="#68C069"/>
<stop offset="0.79" stop-color="#23AD58"/>
<stop offset="0.97" stop-color="#00A450"/>
</radialGradient>
<linearGradient id="paint8_linear_997_3189" x1="17.6794" y1="23.3701" x2="18.227" y2="46.7111" gradientUnits="userSpaceOnUse">
<stop stop-color="#ED2224"/>
<stop offset="0.13" stop-color="#EE3221"/>
<stop offset="0.4" stop-color="#F35D19"/>
<stop offset="0.77" stop-color="#FAA20D"/>
<stop offset="0.96" stop-color="#FFCA06"/>
</linearGradient>
<linearGradient id="paint9_linear_997_3189" x1="31.6446" y1="23.0437" x2="32.1922" y2="46.3828" gradientUnits="userSpaceOnUse">
<stop stop-color="#ED2224"/>
<stop offset="0.13" stop-color="#EE3221"/>
<stop offset="0.4" stop-color="#F35D19"/>
<stop offset="0.77" stop-color="#FAA20D"/>
<stop offset="0.96" stop-color="#FFCA06"/>
</linearGradient>
<linearGradient id="paint10_linear_997_3189" x1="41.7914" y1="22.8067" x2="42.3372" y2="46.1495" gradientUnits="userSpaceOnUse">
<stop stop-color="#ED2224"/>
<stop offset="0.13" stop-color="#EE3221"/>
<stop offset="0.4" stop-color="#F35D19"/>
<stop offset="0.77" stop-color="#FAA20D"/>
<stop offset="0.96" stop-color="#FFCA06"/>
</linearGradient>
<linearGradient id="paint11_linear_997_3189" x1="54.1838" y1="22.6107" x2="54.7331" y2="46.1249" gradientUnits="userSpaceOnUse">
<stop stop-color="#ED2224"/>
<stop offset="0.13" stop-color="#EE3221"/>
<stop offset="0.4" stop-color="#F35D19"/>
<stop offset="0.77" stop-color="#FAA20D"/>
<stop offset="0.96" stop-color="#FFCA06"/>
</linearGradient>
<linearGradient id="paint12_linear_997_3189" x1="68.8707" y1="22.1708" x2="69.4165" y2="45.5118" gradientUnits="userSpaceOnUse">
<stop stop-color="#ED2224"/>
<stop offset="0.13" stop-color="#EE3221"/>
<stop offset="0.4" stop-color="#F35D19"/>
<stop offset="0.77" stop-color="#FAA20D"/>
<stop offset="0.96" stop-color="#FFCA06"/>
</linearGradient>
</defs>
</svg>
